<svg width="24" height="24" viewBox="0 0 24 24" fill="none" xmlns="http://www.w3.org/2000/svg">
<path d="M22.849 7.67993L21.98 6.99993H22.001V1.99992H20.001V5.45093L13.849 0.636925C12.761 -0.215075 11.24 -0.215075 10.152 0.636925L1.151 7.67993C0.42 8.25193 0 9.11393 0 10.0429V23.9999H9V14.9999C9 14.4489 9.448 13.9999 10 13.9999H14C14.552 13.9999 15 14.4489 15 14.9999V23.9999H24V10.0429C24 9.11393 23.58 8.25193 22.849 7.67993ZM22 21.9999H17V14.9999C17 13.3459 15.654 11.9999 14 11.9999H10C8.346 11.9999 7 13.3459 7 14.9999V21.9999H2V10.0429C2 9.73293 2.14 9.44593 2.384 9.25493L11.384 2.21192C11.747 1.92792 12.253 1.92792 12.616 2.21192L21.616 9.25493C21.86 9.44593 22 9.73293 22 10.0429V21.9999Z" fill="#242424"/>
</svg>
