<svg width="122" height="38" viewBox="0 0 122 38" fill="none" xmlns="http://www.w3.org/2000/svg">
<g clip-path="url(#clip0_231_2940)">
<path d="M112.476 27.3801C112.458 27.324 112.416 27.2971 112.35 27.2971H111.413C111.351 27.2971 111.312 27.324 111.294 27.3801L109.664 31.6442C109.631 31.725 109.658 31.7654 109.745 31.7654H110.582C110.644 31.7654 110.683 31.7385 110.701 31.6824L110.951 30.9866H112.818L113.069 31.6824C113.086 31.7385 113.124 31.7654 113.181 31.7654H114.031C114.11 31.7654 114.136 31.725 114.112 31.6442L112.476 27.3801ZM111.283 30.0732L111.876 28.4259H111.896L112.489 30.0732H111.283ZM91.2491 27.398V28.1521C91.2491 28.2194 91.2162 28.2554 91.1503 28.2554H90.0191V31.6644C90.0191 31.7317 89.9862 31.7676 89.9203 31.7676H89.1142C89.0483 31.7676 89.0153 31.734 89.0153 31.6644V28.2554H87.8908C87.8205 28.2554 87.7853 28.2217 87.7853 28.1521V27.398C87.7853 27.3307 87.8205 27.2948 87.8908 27.2948H91.1525C91.2184 27.2948 91.2513 27.3285 91.2513 27.398H91.2491ZM84.0909 27.398V31.6622C84.0909 31.7295 84.0558 31.7654 83.9855 31.7654H83.1794C83.1135 31.7654 83.0805 31.7317 83.0805 31.6622V27.398C83.0805 27.3307 83.1135 27.2948 83.1794 27.2948H83.9855C84.0558 27.2948 84.0909 27.3285 84.0909 27.398ZM84.5587 20.8852V24.2852C84.5587 24.5456 84.3523 24.7588 84.0953 24.7588H82.0987C79.3224 24.7588 77.0315 23.8656 75.2897 22.1038C73.5457 20.3398 72.6628 18.0821 72.6628 15.3957C72.6628 12.7093 73.537 10.5279 75.2634 8.76387C76.9898 6.99988 79.2389 6.10666 81.9516 6.10666H84.0711C84.3259 6.10666 84.5346 6.31762 84.5346 6.5802V9.98027C84.5346 10.2406 84.3281 10.4538 84.0711 10.4538H82.0746C80.5305 10.4538 79.3356 10.9139 78.4241 11.861C77.5103 12.8103 77.0645 13.9661 77.0645 15.3957C77.0645 16.8253 77.5103 18.035 78.4241 18.9955C79.3356 19.9493 80.537 20.4139 82.0987 20.4139H84.0953C84.3501 20.4139 84.5587 20.6248 84.5587 20.8874V20.8852ZM98.5787 27.398V29.952C98.5787 30.5557 98.4184 31.0225 98.0977 31.3524C97.777 31.6824 97.3245 31.8462 96.7425 31.8462C96.1604 31.8462 95.7079 31.6824 95.3895 31.3524C95.071 31.0225 94.9106 30.5557 94.9106 29.952V27.398C94.9106 27.3307 94.9436 27.2948 95.0095 27.2948H95.8156C95.8858 27.2948 95.921 27.3285 95.921 27.398V29.8802C95.921 30.2168 95.9891 30.4637 96.1231 30.6208C96.2592 30.7779 96.4635 30.8565 96.7381 30.8565C97.0126 30.8565 97.2191 30.7779 97.3575 30.6208C97.4958 30.4637 97.5639 30.2168 97.5639 29.8802V27.398C97.5639 27.3307 97.5969 27.2948 97.6628 27.2948H98.4689C98.5392 27.2948 98.5743 27.3285 98.5743 27.398H98.5787ZM89.716 24.761H86.2654C86.0106 24.761 85.8019 24.5501 85.8019 24.2875V6.5802C85.8019 6.31986 86.0084 6.10666 86.2654 6.10666H89.716C89.9708 6.10666 90.1795 6.31762 90.1795 6.5802V24.2875C90.1795 24.5478 89.973 24.761 89.716 24.761ZM105.357 30.1697C105.59 30.0463 105.77 29.869 105.895 29.6378C106.02 29.4067 106.082 29.1396 106.082 28.8366C106.082 28.3563 105.932 27.9793 105.632 27.7078C105.331 27.4362 104.913 27.2993 104.375 27.2993H102.664C102.598 27.2993 102.565 27.333 102.565 27.4025V31.6666C102.565 31.734 102.598 31.7699 102.664 31.7699H103.47C103.54 31.7699 103.576 31.7362 103.576 31.6666V30.3964H103.819C104.158 30.3964 104.419 30.4929 104.604 30.6837C104.788 30.8744 104.924 31.2043 105.012 31.6734C105.025 31.7362 105.063 31.7699 105.124 31.7699H106.029C106.104 31.7699 106.134 31.7317 106.123 31.6554C106.016 30.9619 105.759 30.4682 105.355 30.1742L105.357 30.1697ZM104.351 29.4291H103.576V28.2486H104.351C104.812 28.2486 105.045 28.4439 105.045 28.8366C105.045 29.2294 104.814 29.4291 104.351 29.4291ZM96.6634 10.4538V13.4364H101.821C102.075 13.4364 102.284 13.6474 102.284 13.91V17.1844C102.284 17.4447 102.078 17.6579 101.821 17.6579H96.6634V24.2875C96.6634 24.5478 96.4569 24.761 96.1999 24.761H92.7493C92.4945 24.761 92.2859 24.5501 92.2859 24.2875V6.5802C92.2859 6.31986 92.4923 6.10666 92.7493 6.10666H102.141C102.396 6.10666 102.605 6.31762 102.605 6.5802V9.98027C102.605 10.2406 102.398 10.4538 102.141 10.4538H96.6634ZM114.213 6.5802V9.98027C114.213 10.2406 114.007 10.4538 113.75 10.4538H108.272V13.4364H113.429C113.684 13.4364 113.892 13.6474 113.892 13.91V17.1844C113.892 17.4447 113.686 17.6579 113.429 17.6579H108.272V20.4139H113.75C114.004 20.4139 114.213 20.6248 114.213 20.8874V24.2875C114.213 24.5478 114.007 24.761 113.75 24.761H104.358C104.103 24.761 103.894 24.5501 103.894 24.2875V6.5802C103.894 6.31986 104.101 6.10666 104.358 6.10666H113.75C114.004 6.10666 114.213 6.31762 114.213 6.5802ZM79.2324 30.9215V31.6622C79.2324 31.7295 79.1994 31.7654 79.1335 31.7654H76.2034C76.1376 31.7654 76.1046 31.7317 76.1046 31.6622V27.398C76.1046 27.3307 76.1376 27.2948 76.2034 27.2948H79.1094C79.1752 27.2948 79.2082 27.3285 79.2082 27.398V28.1387C79.2082 28.2105 79.1752 28.2464 79.1094 28.2464H77.1172V29.0633H78.6723C78.7382 29.0633 78.7711 29.0992 78.7711 29.171V29.8869C78.7711 29.9588 78.7382 29.9947 78.6723 29.9947H77.1172V30.8116H79.1357C79.2016 30.8116 79.2346 30.8475 79.2346 30.9193L79.2324 30.9215ZM113.02 0H8.52861C3.87433 0 0.0898438 3.86688 0.0898438 8.62248V29.2316C0.0898438 33.985 3.87433 37.8541 8.52861 37.8541H113.02C117.672 37.8541 121.459 33.9872 121.459 29.2316V8.62248C121.459 3.86912 117.675 0 113.02 0ZM119.553 29.2294C119.553 32.91 116.623 35.9038 113.02 35.9038H8.52861C4.92643 35.9038 1.99636 32.91 1.99636 29.2294V8.62248C1.99636 4.94188 4.92643 1.94803 8.52861 1.94803H113.02C116.623 1.94803 119.553 4.94188 119.553 8.62248V29.2316V29.2294ZM57.6039 30.1675C57.8367 30.044 58.0168 29.8667 58.142 29.6356C58.2672 29.4044 58.3287 29.1374 58.3287 28.8344C58.3287 28.3541 58.1794 27.9771 57.8785 27.7055C57.5775 27.434 57.1602 27.2971 56.6221 27.2971H54.9111C54.8452 27.2971 54.8122 27.3307 54.8122 27.4003V31.6644C54.8122 31.7317 54.8452 31.7676 54.9111 31.7676H55.7172C55.7874 31.7676 55.8226 31.734 55.8226 31.6644V30.3941H56.0664C56.4046 30.3941 56.666 30.4907 56.8505 30.6814C57.035 30.8722 57.1712 31.2021 57.2591 31.6711C57.2722 31.734 57.3096 31.7676 57.3711 31.7676H58.276C58.3507 31.7676 58.3814 31.7295 58.3705 31.6532C58.2628 30.9597 58.0059 30.466 57.6017 30.172L57.6039 30.1675ZM56.5979 29.4269H55.8226V28.2464H56.5979C57.0592 28.2464 57.292 28.4416 57.292 28.8344C57.292 29.2271 57.0614 29.4269 56.5979 29.4269ZM65.3859 30.9215V31.6622C65.3859 31.7295 65.353 31.7654 65.2871 31.7654H62.357C62.2911 31.7654 62.2582 31.7317 62.2582 31.6622V27.398C62.2582 27.3307 62.2911 27.2948 62.357 27.2948H65.2629C65.3288 27.2948 65.3618 27.3285 65.3618 27.398V28.1387C65.3618 28.2105 65.3288 28.2464 65.2629 28.2464H63.2707V29.0633H64.8258C64.8917 29.0633 64.9247 29.0992 64.9247 29.171V29.8869C64.9247 29.9588 64.8917 29.9947 64.8258 29.9947H63.2707V30.8116H65.2893C65.3552 30.8116 65.3881 30.8475 65.3881 30.9193L65.3859 30.9215ZM59.9519 17.0407C60.512 15.9612 60.7953 14.7897 60.7953 13.5576C60.7953 11.5221 60.0705 9.75135 58.6384 8.29707C57.2063 6.84278 55.3877 6.10666 53.233 6.10666H48.0318C47.777 6.10666 47.5683 6.31762 47.5683 6.5802V24.2875C47.5683 24.5478 47.7748 24.761 48.0318 24.761H51.4824C51.7372 24.761 51.9458 24.5501 51.9458 24.2875V21.0333H53.356C53.5119 21.0333 53.7118 21.0243 53.9534 21.0041L54.6672 22.1487C55.3042 23.1609 56.0071 23.8588 56.7561 24.2224C57.4985 24.5837 58.5813 24.7588 60.0617 24.7588C60.3165 24.7588 60.5252 24.5478 60.5252 24.2852V20.8852C60.5252 20.6248 60.3187 20.4116 60.0617 20.4116C59.528 20.4116 59.1041 20.3533 58.8054 20.2388C58.5484 20.1401 58.3112 19.9314 58.1069 19.6172L57.9795 19.4174C58.8032 18.7778 59.4643 17.9788 59.9519 17.0363V17.0407ZM55.5305 15.7032C54.9242 16.2799 54.2038 16.5582 53.3318 16.5582H51.9458V10.5772H53.3318C54.2038 10.5772 54.922 10.86 55.5305 11.4435C56.1279 12.0181 56.42 12.7183 56.42 13.5801C56.42 14.4419 56.1301 15.1354 55.5326 15.7009L55.5305 15.7032ZM72.3223 27.398V28.1521C72.3223 28.2194 72.2894 28.2554 72.2235 28.2554H70.2489V29.1867H71.9533C72.0192 29.1867 72.0522 29.2204 72.0522 29.29V30.0373C72.0522 30.1091 72.0192 30.145 71.9533 30.145H70.2489V31.6644C70.2489 31.7317 70.2137 31.7676 70.1434 31.7676H69.3373C69.2714 31.7676 69.2385 31.734 69.2385 31.6644V27.4003C69.2385 27.333 69.2714 27.2971 69.3373 27.2971H72.2235C72.2894 27.2971 72.3223 27.3307 72.3223 27.4003V27.398ZM72.4299 6.5802V9.98027C72.4299 10.2406 72.2235 10.4538 71.9665 10.4538H66.4885V13.4364H71.6458C71.9006 13.4364 72.1093 13.6474 72.1093 13.91V17.1844C72.1093 17.4447 71.9028 17.6579 71.6458 17.6579H66.4885V20.4139H71.9665C72.2213 20.4139 72.4299 20.6248 72.4299 20.8874V24.2875C72.4299 24.5478 72.2235 24.761 71.9665 24.761H62.5745C62.3197 24.761 62.111 24.5501 62.111 24.2875V6.5802C62.111 6.31986 62.3175 6.10666 62.5745 6.10666H71.9665C72.2213 6.10666 72.4299 6.31762 72.4299 6.5802ZM49.3452 27.2971H47.6518C47.5859 27.2971 47.5529 27.3307 47.5529 27.4003V31.6644C47.5529 31.7317 47.5859 31.7676 47.6518 31.7676H48.4579C48.5282 31.7676 48.5633 31.734 48.5633 31.6644V30.4458H49.3452C49.8878 30.4458 50.3073 30.3066 50.6038 30.0306C50.9025 29.7545 51.0497 29.3663 51.0497 28.868C51.0497 28.3698 50.9003 27.9838 50.6038 27.71C50.3051 27.4362 49.8856 27.2993 49.3452 27.2993V27.2971ZM49.3211 29.4875H48.5655V28.2486H49.3211C49.7801 28.2486 50.0086 28.4551 50.0086 28.868C50.0086 29.281 49.7801 29.4875 49.3211 29.4875ZM24.2179 11.365C25.6939 11.365 27.0996 11.6747 28.3801 12.2335L27.9474 13.2838C26.8009 12.7856 25.5423 12.5096 24.2179 12.5096C22.8934 12.5096 21.6326 12.7856 20.4861 13.2861L20.0534 12.2358C21.3339 11.6769 22.7418 11.3672 24.2179 11.3672V11.365ZM17.7515 7.33427C17.8306 7.29837 17.9096 7.25797 17.9887 7.2243C18.584 6.96397 19.199 6.74403 19.8293 6.56L19.6646 5.98547C19.5109 6.03035 19.3571 6.07748 19.2056 6.12686L19.2802 6.35802C19.1462 6.40066 19.0145 6.45003 18.8805 6.49716L18.8058 6.26376C18.6433 6.31986 18.4829 6.38046 18.3248 6.44105L18.4126 6.66997C18.2808 6.72159 18.1513 6.77321 18.0217 6.82931L17.9338 6.60264C17.8767 6.62733 17.8196 6.64977 17.7625 6.67446C17.679 6.71037 17.5978 6.75076 17.5165 6.78892C17.5077 6.7934 17.5011 6.79565 17.4923 6.80014L17.7295 7.34774C17.7295 7.34774 17.7449 7.34101 17.7537 7.33652L17.7515 7.33427ZM21.7864 8.65615L21.4767 6.82258C20.9781 6.91459 20.4861 7.03354 20.0051 7.17493L20.5146 8.96137C20.9298 8.84018 21.3537 8.73694 21.7864 8.65615ZM24.2179 8.42723C24.4353 8.42723 24.6506 8.43397 24.8658 8.44519L24.969 6.58469C24.7208 6.57122 24.4704 6.56449 24.2179 6.56449C23.9653 6.56449 23.7083 6.57122 23.4557 6.58469L23.5589 8.44519C23.7764 8.43397 23.996 8.42723 24.2179 8.42723ZM27.1545 5.59945C27.0117 5.57252 26.869 5.55008 26.7262 5.52764L26.6933 5.77002C26.5549 5.74757 26.4143 5.73411 26.2759 5.71615L26.3111 5.46929C26.1639 5.44909 26.0146 5.43113 25.8652 5.41542L25.8432 5.66229C25.7049 5.64883 25.5621 5.63985 25.4237 5.62863L25.4457 5.37727C25.3117 5.36605 25.1755 5.35707 25.0415 5.35034L25.0086 5.94731C25.7049 5.98322 26.3879 6.06626 27.0579 6.19194L27.1567 5.6017L27.1545 5.59945ZM23.4205 5.94507L23.3876 5.34809C23.2492 5.35483 23.1108 5.36605 22.9725 5.37727L22.9922 5.62863C22.8517 5.63985 22.7111 5.64658 22.5727 5.66229L22.5529 5.41767C22.4036 5.43338 22.2542 5.45133 22.1071 5.47153L22.14 5.7184C22.0016 5.73635 21.8611 5.75206 21.7227 5.77226L21.6897 5.53212C21.5492 5.55457 21.4086 5.57701 21.2702 5.60394L21.3691 6.19418C22.039 6.06851 22.7243 5.98322 23.4205 5.94731V5.94507ZM30.6754 7.32978C30.6754 7.32978 30.6886 7.33652 30.6952 7.33876L30.9324 6.79116C30.9324 6.79116 30.9192 6.78443 30.9104 6.78218C30.8292 6.74403 30.7501 6.70363 30.6666 6.66997C30.6051 6.64304 30.5436 6.6206 30.4843 6.59366L30.3943 6.82482C30.2647 6.77096 30.1329 6.7171 30.0033 6.66548L30.0934 6.43432C29.9374 6.37373 29.7793 6.31537 29.6211 6.25927L29.5442 6.49492C29.4125 6.44779 29.2785 6.40066 29.1445 6.35577L29.2214 6.12237C29.0676 6.07299 28.9139 6.02586 28.7601 5.97873L28.5954 6.55327C29.2258 6.73954 29.843 6.95724 30.4404 7.21757C30.5195 7.25124 30.5963 7.29163 30.6754 7.32754V7.32978ZM28.9117 10.9341C27.4686 10.3034 25.8806 9.95558 24.2157 9.95558C22.5507 9.95558 20.9605 10.3057 19.5153 10.9363L19.9787 12.0629C21.2812 11.4929 22.7133 11.1787 24.2135 11.1787C25.7136 11.1787 27.1435 11.4929 28.446 12.0607L28.9095 10.9341H28.9117ZM29.4608 10.1508C29.4608 10.1508 29.4718 10.1553 29.4762 10.1576L29.6343 9.79399C29.6343 9.79399 29.6233 9.7895 29.6167 9.78502C29.5508 9.75584 29.4871 9.72218 29.4191 9.693C27.8178 8.99503 26.0607 8.60902 24.2157 8.60902C22.3706 8.60902 20.6069 8.99728 19.0057 9.69525C18.9376 9.72442 18.8717 9.75809 18.8058 9.78726C18.7992 9.78951 18.7926 9.79399 18.786 9.79624L18.9442 10.1598C18.9442 10.1598 18.9574 10.1531 18.9617 10.1508C19.0276 10.1217 19.0913 10.0902 19.155 10.0611C20.7101 9.38105 22.419 9.00625 24.2135 9.00625C26.008 9.00625 27.7124 9.38105 29.2675 10.0588C29.3312 10.088 29.3949 10.1194 29.4586 10.1486L29.4608 10.1508ZM28.982 10.7613L29.1994 10.2339C27.6663 9.56508 25.9838 9.19477 24.2157 9.19477C22.4475 9.19477 20.7606 9.56508 19.2275 10.2361L19.445 10.7635C19.445 10.7635 19.4472 10.7635 19.4494 10.7635C19.4384 10.5638 19.5504 10.3708 19.7415 10.2967C19.9348 10.2204 20.1456 10.2877 20.2664 10.4471C20.4707 10.3753 20.675 10.3102 20.8836 10.2496C20.8946 10.0476 21.0286 9.86805 21.2285 9.81644C21.4284 9.76482 21.6304 9.85908 21.7315 10.0319C21.927 9.98924 22.1224 9.95334 22.3223 9.92192C22.3531 9.71769 22.509 9.55161 22.7199 9.52468C22.9307 9.49775 23.1262 9.62343 23.2009 9.81644C23.3876 9.80073 23.5765 9.78951 23.7654 9.78053C23.8159 9.5763 23.996 9.42369 24.2091 9.42369C24.4221 9.42369 24.6022 9.5763 24.6528 9.78053C24.8416 9.78726 25.0305 9.79848 25.2194 9.81419C25.2963 9.62118 25.4896 9.49551 25.7005 9.52244C25.9091 9.54937 26.0651 9.71544 26.0958 9.91743C26.2935 9.94885 26.4912 9.98476 26.6867 10.0274C26.7899 9.85459 26.9898 9.76257 27.1897 9.81419C27.3895 9.86581 27.5235 10.0431 27.5345 10.2451C27.7432 10.3057 27.9496 10.373 28.1539 10.4426C28.2769 10.2855 28.4856 10.2182 28.6788 10.2945C28.8699 10.3708 28.9798 10.5615 28.971 10.759C28.971 10.759 28.9732 10.759 28.9754 10.759L28.982 10.7613ZM19.647 6.80238C19.1462 6.95948 18.6542 7.13902 18.1754 7.34325C18.1359 7.35896 18.0963 7.37467 18.0568 7.39038L18.1578 7.63725C18.1974 7.6193 18.2369 7.60583 18.2765 7.59012C18.7465 7.39038 19.2275 7.21308 19.7195 7.05823L19.647 6.80014V6.80238ZM19.054 9.47755C19.4538 9.30699 19.8645 9.15662 20.2818 9.02421L19.7722 7.23777C19.2868 7.38814 18.8124 7.56319 18.3489 7.76068C18.3094 7.77639 18.2699 7.7921 18.2325 7.80781L18.9398 9.52244C18.9771 9.50673 19.0167 9.49102 19.0562 9.47531L19.054 9.47755ZM23.3195 8.45641L23.2163 6.59815C22.7089 6.63182 22.2081 6.69017 21.7139 6.77321L22.0236 8.60677C22.4497 8.53496 22.8824 8.48558 23.3195 8.45416V8.45641ZM21.6392 6.3266L21.6831 6.59142C22.1839 6.50614 22.6913 6.44779 23.2053 6.41188L23.1899 6.14481C22.665 6.18072 22.1466 6.24131 21.637 6.3266H21.6392ZM30.3723 7.38814C30.3328 7.37018 30.291 7.35672 30.2515 7.33876C29.7727 7.13453 29.2807 6.95499 28.7799 6.79789L28.7074 7.05598C29.1994 7.20859 29.6804 7.38589 30.1505 7.58563C30.19 7.60359 30.2317 7.61705 30.2713 7.63501L30.3723 7.38814ZM30.078 7.7562C29.6145 7.5587 29.1401 7.38365 28.6547 7.23328L28.1451 9.01972C28.5646 9.14989 28.9732 9.3025 29.3751 9.47082C29.4147 9.48877 29.4564 9.50224 29.4959 9.52019L30.201 7.80557C30.1614 7.78762 30.1197 7.77415 30.0802 7.7562H30.078ZM25.1052 8.45416C25.5445 8.48334 25.9772 8.53271 26.4033 8.60453L26.713 6.77096C26.2188 6.68792 25.718 6.62957 25.2107 6.59591L25.1074 8.45416H25.1052ZM26.7855 6.32211C26.2759 6.23683 25.7576 6.17623 25.2326 6.14032L25.2172 6.40739C25.7312 6.44105 26.2408 6.4994 26.7394 6.58469L26.7833 6.31986L26.7855 6.32211ZM26.6383 8.64717C27.0688 8.72796 27.4928 8.82896 27.9101 8.95015L28.4197 7.16371C27.9386 7.02232 27.4466 6.90562 26.9458 6.81136L26.6361 8.64493L26.6383 8.64717ZM24.2091 17.2921C22.0104 17.2921 20.0753 18.4636 18.9596 20.2298H19.2209C20.3104 18.5938 22.1378 17.5188 24.2091 17.5188C26.2803 17.5188 28.1078 18.5938 29.1972 20.2298H29.4586C28.3428 18.4636 26.4077 17.2921 24.2091 17.2921ZM34.372 11.4099C34.4533 11.4458 35.0551 11.1473 35.5054 11.3336C35.7866 11.4503 35.9008 11.6343 36.0084 11.8744C36.0172 11.4772 35.8173 11.3156 35.6108 11.2011C35.3253 11.0441 34.5214 11.2191 34.495 11.2101C34.4687 11.2011 34.1722 10.29 33.4935 10.9229C34.293 10.5301 34.293 11.374 34.372 11.4099ZM24.4221 20.6361H24.0905V21.2016H23.5304V21.5405H24.0905V23.0823H24.4221V21.5405H24.9822V21.2016H24.4221V20.6361ZM24.2091 16.7445C21.7029 16.7445 19.5087 18.1494 18.3336 20.2298H18.5862C19.7393 18.2773 21.8281 16.9689 24.2113 16.9689C26.5944 16.9689 28.681 18.2773 29.8342 20.2298H30.0868C28.9095 18.1472 26.7174 16.7445 24.2113 16.7445H24.2091ZM17.9733 15.0882H30.4448V20.2231C29.2367 17.9586 26.8931 16.4213 24.2091 16.4213C21.525 16.4213 19.1814 17.9609 17.9733 20.2231V15.0882ZM23.7478 15.6403L23.7961 15.6762L23.895 15.7503L23.9938 15.8243L24.0334 15.8535L23.9938 15.9747L23.9235 16.1991L23.9938 16.1475L24.0927 16.0735L24.1915 15.9994L24.2091 15.9859L24.2925 16.0488L24.3914 16.1228L24.4902 16.1969L24.4946 16.2014L24.4902 16.1857L24.3914 15.8737L24.387 15.8558L24.3914 15.8513L24.4902 15.7772L24.5913 15.7009L24.6703 15.6403H24.3145L24.2925 15.5663L24.2091 15.2992L24.1915 15.3531L24.0992 15.6403H23.7478ZM28.8106 20.2321H19.6097C20.653 18.7845 22.3267 17.8442 24.2091 17.8442C26.0914 17.8442 27.7651 18.7845 28.8084 20.2321H28.8106ZM24.7164 19.0785L24.7472 19.0673L24.8241 19.0404L24.9031 19.0135L24.8241 18.9708L24.7472 18.9282L24.6989 18.9012L24.7472 18.8519L24.8241 18.7711L24.8878 18.7037H24.6352L24.6681 18.6252L24.7274 18.4748L24.6681 18.4928L24.5891 18.5152L24.5122 18.5377L24.4924 18.5422L24.4748 18.2975L24.4331 18.3357L24.3584 18.4008L24.2881 18.4614L24.2772 18.4389L24.1959 18.2706V18.2661L24.119 18.4075L24.097 18.4479L24.0421 18.4008L23.9631 18.3312L23.8928 18.2684L23.9082 18.5601L23.8862 18.5511L23.8071 18.5197L23.728 18.4883L23.6731 18.4659L23.728 18.5803L23.783 18.6925H23.4974L23.5699 18.7868L23.6512 18.8945L23.6709 18.9214L23.6512 18.9327L23.5699 18.9753L23.4952 19.0135L23.4842 19.0202L23.4952 19.0247L23.5699 19.0606L23.6512 19.0987L23.6863 19.1167L23.6512 19.1526L23.5699 19.2379L23.4952 19.3164L23.4842 19.3277H23.7698L23.728 19.4152L23.6578 19.5678L23.728 19.5431L23.8071 19.5162L23.8862 19.4892H23.8928L23.9082 19.781L23.9631 19.7294L24.0421 19.6531L24.1124 19.5857L24.119 19.597L24.1959 19.7361L24.2113 19.763L24.2772 19.57L24.2881 19.5386L24.3584 19.6149L24.4331 19.698L24.4946 19.7653L24.5078 19.4578H24.5122L24.5891 19.4937L24.6681 19.5274L24.6967 19.5409L24.6681 19.4601L24.6198 19.3277H24.8702L24.8241 19.2558L24.7472 19.1324L24.7164 19.083V19.0785ZM29.9242 29.6176C29.7903 29.5301 29.6211 29.4224 29.3949 29.4224C29.1687 29.4224 28.9995 29.5301 28.8655 29.6176C28.7491 29.6939 28.6569 29.7523 28.5427 29.7523C28.4284 29.7523 28.3362 29.6917 28.2198 29.6176C28.0858 29.5301 27.9167 29.4224 27.6904 29.4224C27.4642 29.4224 27.2951 29.5301 27.1611 29.6176C27.0447 29.6939 26.9524 29.7523 26.8382 29.7523C26.724 29.7523 26.6318 29.6917 26.5153 29.6176C26.3814 29.5301 26.2122 29.4224 25.986 29.4224C25.7598 29.4224 25.5906 29.5301 25.4567 29.6176C25.3402 29.6939 25.248 29.7523 25.1338 29.7523C25.0196 29.7523 24.9273 29.6917 24.8109 29.6176C24.6769 29.5301 24.5078 29.4224 24.2816 29.4224C24.0553 29.4224 23.8862 29.5301 23.7522 29.6176C23.6358 29.6939 23.5435 29.7523 23.4293 29.7523C23.3151 29.7523 23.2229 29.6917 23.1065 29.6176C22.9725 29.5301 22.8033 29.4224 22.5771 29.4224C22.3509 29.4224 22.1817 29.5301 22.0478 29.6176C21.9313 29.6939 21.8391 29.7523 21.7249 29.7523C21.6107 29.7523 21.5184 29.6917 21.402 29.6176C21.268 29.5301 21.0989 29.4224 20.8727 29.4224C20.6464 29.4224 20.4773 29.5301 20.3433 29.6176C20.2269 29.6939 20.1347 29.7523 20.0204 29.7523C19.9062 29.7523 19.814 29.6917 19.6976 29.6176C19.5636 29.5301 19.3944 29.4224 19.1682 29.4224C18.942 29.4224 18.7729 29.5301 18.6389 29.6176C18.5225 29.6939 18.4302 29.7523 18.316 29.7523C18.2018 29.7523 18.1095 29.6917 17.9931 29.6176C17.9887 29.6154 17.9843 29.6109 17.9799 29.6086V30.0036C18.0766 30.053 18.1842 30.0912 18.316 30.0912C18.529 30.0912 18.685 29.9902 18.8212 29.9027C18.9398 29.8263 19.0408 29.7613 19.1682 29.7613C19.2956 29.7613 19.3966 29.8263 19.5153 29.9027C19.6514 29.9902 19.8074 30.0912 20.0204 30.0912C20.2335 30.0912 20.3894 29.9902 20.5256 29.9027C20.6442 29.8263 20.7453 29.7613 20.8727 29.7613C21.0001 29.7613 21.1011 29.8263 21.2197 29.9027C21.3559 29.9902 21.5118 30.0912 21.7249 30.0912C21.9379 30.0912 22.0939 29.9902 22.2301 29.9027C22.3487 29.8263 22.4497 29.7613 22.5771 29.7613C22.7045 29.7613 22.8055 29.8263 22.9241 29.9027C23.0603 29.9902 23.2163 30.0912 23.4293 30.0912C23.6424 30.0912 23.7983 29.9902 23.9345 29.9027C24.0531 29.8263 24.1542 29.7613 24.2816 29.7613C24.4089 29.7613 24.51 29.8263 24.6286 29.9027C24.7648 29.9902 24.9207 30.0912 25.1338 30.0912C25.3468 30.0912 25.5028 29.9902 25.639 29.9027C25.7576 29.8263 25.8586 29.7613 25.986 29.7613C26.1134 29.7613 26.2144 29.8263 26.333 29.9027C26.4692 29.9902 26.6252 30.0912 26.8382 30.0912C27.0513 30.0912 27.2072 29.9902 27.3434 29.9027C27.462 29.8263 27.563 29.7613 27.6904 29.7613C27.8178 29.7613 27.9189 29.8263 28.0375 29.9027C28.1737 29.9902 28.3296 30.0912 28.5427 30.0912C28.7557 30.0912 28.9117 29.9902 29.0478 29.9027C29.1665 29.8263 29.2675 29.7613 29.3949 29.7613C29.5223 29.7613 29.6233 29.8263 29.7419 29.9027C29.8781 29.9902 30.0341 30.0912 30.2471 30.0912C30.3218 30.0912 30.3899 30.0777 30.4514 30.0597V29.6917C30.3833 29.7298 30.3196 29.7523 30.2471 29.7523C30.1329 29.7523 30.0406 29.6917 29.9242 29.6176ZM29.9242 30.2797C29.7903 30.1922 29.6211 30.0844 29.3949 30.0844C29.1687 30.0844 28.9995 30.1922 28.8655 30.2797C28.7491 30.356 28.6569 30.4143 28.5427 30.4143C28.4284 30.4143 28.3362 30.3537 28.2198 30.2797C28.0858 30.1922 27.9167 30.0844 27.6904 30.0844C27.4642 30.0844 27.2951 30.1922 27.1611 30.2797C27.0447 30.356 26.9524 30.4143 26.8382 30.4143C26.724 30.4143 26.6318 30.3537 26.5153 30.2797C26.3814 30.1922 26.2122 30.0844 25.986 30.0844C25.7598 30.0844 25.5906 30.1922 25.4567 30.2797C25.3402 30.356 25.248 30.4143 25.1338 30.4143C25.0196 30.4143 24.9273 30.3537 24.8109 30.2797C24.6769 30.1922 24.5078 30.0844 24.2816 30.0844C24.0553 30.0844 23.8862 30.1922 23.7522 30.2797C23.6358 30.356 23.5435 30.4143 23.4293 30.4143C23.3151 30.4143 23.2229 30.3537 23.1065 30.2797C22.9725 30.1922 22.8033 30.0844 22.5771 30.0844C22.3509 30.0844 22.1817 30.1922 22.0478 30.2797C21.9313 30.356 21.8391 30.4143 21.7249 30.4143C21.6107 30.4143 21.5184 30.3537 21.402 30.2797C21.268 30.1922 21.0989 30.0844 20.8727 30.0844C20.6464 30.0844 20.4773 30.1922 20.3433 30.2797C20.2269 30.356 20.1347 30.4143 20.0204 30.4143C19.9062 30.4143 19.814 30.3537 19.6976 30.2797C19.5636 30.1922 19.3944 30.0844 19.1682 30.0844C18.942 30.0844 18.7729 30.1922 18.6389 30.2797C18.5225 30.356 18.4302 30.4143 18.316 30.4143C18.2018 30.4143 18.1095 30.3537 17.9931 30.2797C17.9931 30.2797 17.9909 30.2797 17.9887 30.2774C17.9975 30.3784 18.0129 30.4704 18.0348 30.5535C18.0502 30.6096 18.0678 30.6612 18.0898 30.7106C18.1578 30.7353 18.2325 30.751 18.316 30.751C18.529 30.751 18.685 30.65 18.8234 30.5625C18.942 30.4862 19.043 30.4211 19.1704 30.4211C19.2978 30.4211 19.3988 30.4862 19.5174 30.5625C19.6536 30.6522 19.8096 30.751 20.0226 30.751C20.2357 30.751 20.3916 30.65 20.53 30.5625C20.6486 30.4862 20.7497 30.4211 20.8771 30.4211C21.0044 30.4211 21.1055 30.4862 21.2241 30.5625C21.3603 30.6522 21.5162 30.751 21.7293 30.751C21.9423 30.751 22.0983 30.65 22.2367 30.5625C22.3553 30.4862 22.4563 30.4211 22.5837 30.4211C22.7111 30.4211 22.8121 30.4862 22.9307 30.5625C23.0669 30.6522 23.2229 30.751 23.4359 30.751C23.649 30.751 23.8049 30.65 23.9433 30.5625C24.0619 30.4862 24.1629 30.4211 24.2903 30.4211C24.4177 30.4211 24.5188 30.4862 24.6374 30.5625C24.7736 30.6522 24.9295 30.751 25.1426 30.751C25.3556 30.751 25.5116 30.65 25.6499 30.5625C25.7685 30.4862 25.8696 30.4211 25.997 30.4211C26.1244 30.4211 26.2254 30.4862 26.344 30.5625C26.4802 30.6522 26.6361 30.751 26.8492 30.751C27.0623 30.751 27.2182 30.65 27.3566 30.5625C27.4752 30.4862 27.5762 30.4211 27.7036 30.4211C27.831 30.4211 27.9321 30.4862 28.0507 30.5625C28.1868 30.6522 28.3428 30.751 28.5558 30.751C28.7689 30.751 28.9248 30.65 29.0632 30.5625C29.1818 30.4862 29.2829 30.4211 29.4103 30.4211C29.5377 30.4211 29.6387 30.4862 29.7573 30.5625C29.8935 30.6522 30.0494 30.751 30.2625 30.751C30.2888 30.751 30.3152 30.751 30.3416 30.7465C30.3679 30.6859 30.3921 30.6231 30.4118 30.5535C30.4272 30.4929 30.4404 30.4301 30.4492 30.3627C30.3877 30.3941 30.3306 30.4143 30.2625 30.4143C30.1483 30.4143 30.056 30.3537 29.9396 30.2797H29.9242ZM12.4185 14.3656C12.8995 14.5945 13.1785 14.6708 13.5607 15.0725C13.9099 15.4406 14.4085 15.5393 14.7819 15.1802C15.1553 14.8212 15.2651 14.7157 15.2651 14.7157C15.2651 14.7157 15.599 14.8279 15.9131 14.6843C16.0624 14.9738 16.1064 15.8962 14.5601 15.6022C15.1487 16.1453 16.55 15.9859 16.2272 14.3678C16.3612 14.2174 16.3414 13.8898 16.3106 13.5307C16.2579 12.9337 16.4051 12.8193 16.4029 12.4983C16.3963 12.1729 16.3282 11.962 15.9987 11.6186C15.6693 11.2752 15.4342 11.163 15.2959 11.1518C15.2563 11.1518 15.1795 11.1989 15.1795 11.1989C15.1795 11.1989 15.733 11.4705 15.9109 11.8161C16.0932 12.1595 15.9921 12.6532 15.9328 12.9584C15.8713 13.2659 15.946 13.5262 16.0383 13.7215C16.1349 13.919 16.2316 14.1636 16.0317 14.3813C15.834 14.6012 15.3332 14.4643 15.3332 14.4643C15.3332 14.4643 15.1948 14.2601 15.2849 14.0065C15.3771 13.7596 15.5309 13.6429 15.5243 13.5015C15.5155 13.3624 15.3574 13.2681 15.1948 13.0976C15.0301 12.9292 14.8807 12.5746 14.9598 12.4086C15.0367 12.238 15.1509 12.1056 15.3464 12.0405C15.5397 11.9754 15.5924 11.8722 15.5089 11.7286C15.4255 11.5782 15.2014 11.5939 15.0499 11.7398C14.9027 11.8857 14.6721 12.2111 14.749 12.5993C14.8302 12.9876 15.0674 13.2659 15.2014 13.4364C15.3398 13.6025 15.1597 13.8269 14.85 13.8965C14.5403 13.9728 14.3492 13.9459 14.3119 13.9033C14.2767 13.8606 14.2833 13.5891 14.2328 13.2816C14.1801 12.9741 13.7232 12.6577 13.3498 12.6667C12.9764 12.6711 12.7502 12.7587 12.8315 13.0325C13.0445 13.3848 13.4684 12.9674 13.4684 12.9674C13.4684 12.9674 13.8308 13.1582 13.9582 13.4566C14.0812 13.7596 14.0395 14.0671 14.2196 14.1187C14.3953 14.1681 14.8083 14.0334 14.9137 14.1748C15.0279 14.3162 15.063 14.5294 15.063 14.5294C15.063 14.5294 14.4854 15.4002 13.9033 15.0635C13.6639 14.9244 13.3454 14.6035 12.983 14.3656C12.6228 14.1322 12.2121 14.0581 12.2121 13.4275C12.2121 12.7968 12.2472 12.6263 12.3329 12.2313C12.4207 11.8363 12.4207 11.4031 12.9259 11.3381C13.4355 11.273 13.9473 11.3627 14.0329 11.3246C14.1186 11.2864 14.1186 10.3955 14.9642 10.8106C14.246 10.1419 13.9341 11.1046 13.9055 11.1159C13.877 11.1248 12.9391 10.9498 12.6382 11.1159C12.3373 11.2819 12.2538 11.4592 12.0429 12.4871C11.8431 13.4589 11.9353 14.1389 12.4141 14.3656H12.4185ZM16.0998 16.9757C16.3458 17.5794 16.4732 18.0417 16.4732 18.0417C15.8999 17.2966 15.3398 17.144 15.0828 16.8343C15.0323 17.3527 15.1158 17.714 15.1158 17.714C15.1158 17.714 14.5095 17.3729 14.1801 16.5672C14.1559 17.1126 14.4019 18.0058 15.7242 18.3312C15.3925 17.8756 15.3793 17.5031 15.3793 17.5031C15.3793 17.5031 16.0778 17.9407 16.8466 18.9371C16.8905 17.9923 16.7345 17.4559 16.0998 16.9779V16.9757ZM29.922 28.9601C29.7881 28.8725 29.6189 28.7648 29.3927 28.7648C29.1665 28.7648 28.9973 28.8725 28.8633 28.9601C28.7469 29.0364 28.6547 29.0947 28.5405 29.0947C28.4263 29.0947 28.334 29.0341 28.2176 28.9601C28.0836 28.8725 27.9145 28.7648 27.6882 28.7648C27.462 28.7648 27.2929 28.8725 27.1589 28.9623C27.0425 29.0386 26.9502 29.097 26.836 29.097C26.7218 29.097 26.6296 29.0364 26.5131 28.9623C26.3792 28.8748 26.21 28.767 25.9838 28.767C25.7576 28.767 25.5884 28.8748 25.4545 28.9623C25.338 29.0386 25.2458 29.097 25.1316 29.097C25.0174 29.097 24.9251 29.0364 24.8087 28.9623C24.6747 28.8748 24.5056 28.767 24.2794 28.767C24.0531 28.767 23.884 28.8748 23.75 28.9623C23.6336 29.0386 23.5413 29.097 23.4271 29.097C23.3129 29.097 23.2207 29.0364 23.1043 28.9623C22.9703 28.8748 22.8011 28.767 22.5749 28.767C22.3487 28.767 22.1795 28.8748 22.0456 28.9623C21.9292 29.0386 21.8369 29.097 21.7227 29.097C21.6085 29.097 21.5162 29.0364 21.3998 28.9623C21.2658 28.8748 21.0967 28.767 20.8705 28.767C20.6442 28.767 20.4751 28.8748 20.3411 28.9623C20.2247 29.0386 20.1325 29.097 20.0182 29.097C19.904 29.097 19.8118 29.0364 19.6954 28.9623C19.5614 28.8748 19.3923 28.767 19.166 28.767C18.9398 28.767 18.7707 28.8748 18.6367 28.9623C18.5203 29.0386 18.428 29.097 18.3138 29.097C18.1996 29.097 18.1073 29.0364 17.9909 28.9623C17.9865 28.9601 17.9821 28.9556 17.9777 28.9533V29.3483C18.0744 29.3977 18.182 29.4358 18.3138 29.4358C18.5269 29.4358 18.6828 29.3349 18.8212 29.2473C18.9398 29.171 19.0408 29.1059 19.1682 29.1059C19.2956 29.1059 19.3966 29.171 19.5153 29.2473C19.6514 29.3371 19.8074 29.4358 20.0204 29.4358C20.2335 29.4358 20.3894 29.3349 20.5278 29.2473C20.6464 29.171 20.7475 29.1059 20.8749 29.1059C21.0023 29.1059 21.1033 29.171 21.2219 29.2473C21.3581 29.3371 21.514 29.4358 21.7271 29.4358C21.9401 29.4358 22.0961 29.3349 22.2345 29.2473C22.3531 29.171 22.4541 29.1059 22.5815 29.1059C22.7089 29.1059 22.8099 29.171 22.9285 29.2473C23.0647 29.3371 23.2207 29.4358 23.4337 29.4358C23.6468 29.4358 23.8027 29.3349 23.9411 29.2473C24.0597 29.171 24.1607 29.1059 24.2881 29.1059C24.4155 29.1059 24.5166 29.171 24.6352 29.2473C24.7714 29.3371 24.9273 29.4358 25.1404 29.4358C25.3534 29.4358 25.5094 29.3349 25.6477 29.2473C25.7664 29.171 25.8674 29.1059 25.9948 29.1059C26.1222 29.1059 26.2232 29.171 26.3418 29.2473C26.478 29.3371 26.6339 29.4358 26.847 29.4358C27.0601 29.4358 27.216 29.3349 27.3544 29.2473C27.473 29.171 27.574 29.1059 27.7014 29.1059C27.8288 29.1059 27.9299 29.171 28.0485 29.2473C28.1846 29.3371 28.3406 29.4358 28.5536 29.4358C28.7667 29.4358 28.9227 29.3349 29.061 29.2473C29.1796 29.171 29.2807 29.1059 29.4081 29.1059C29.5355 29.1059 29.6365 29.171 29.7551 29.2473C29.8913 29.3371 30.0472 29.4358 30.2603 29.4358C30.335 29.4358 30.4031 29.4224 30.4646 29.4044V29.0364C30.3965 29.0745 30.3328 29.0992 30.2603 29.0992C30.1461 29.0992 30.0538 29.0386 29.9374 28.9645L29.922 28.9601ZM29.3927 30.751C29.1665 30.751 28.9973 30.8587 28.8633 30.9462C28.7469 31.0225 28.6547 31.0809 28.5405 31.0809C28.4263 31.0809 28.334 31.0203 28.2176 30.9462C28.0836 30.8587 27.9145 30.751 27.6882 30.751C27.462 30.751 27.2929 30.8587 27.1589 30.9462C27.0425 31.0225 26.9502 31.0809 26.836 31.0809C26.7218 31.0809 26.6296 31.0203 26.5131 30.9462C26.3792 30.8587 26.21 30.751 25.9838 30.751C25.7576 30.751 25.5884 30.8587 25.4545 30.9462C25.338 31.0225 25.2458 31.0809 25.1316 31.0809C25.0174 31.0809 24.9251 31.0203 24.8087 30.9462C24.6747 30.8587 24.5056 30.751 24.2794 30.751C24.0531 30.751 23.884 30.8587 23.75 30.9462C23.6336 31.0225 23.5413 31.0809 23.4271 31.0809C23.3129 31.0809 23.2207 31.0203 23.1043 30.9462C22.9703 30.8587 22.8011 30.751 22.5749 30.751C22.3487 30.751 22.1795 30.8587 22.0456 30.9462C21.9292 31.0225 21.8369 31.0809 21.7227 31.0809C21.6085 31.0809 21.5162 31.0203 21.3998 30.9462C21.2658 30.8587 21.0967 30.751 20.8705 30.751C20.6442 30.751 20.4751 30.8587 20.3411 30.9462C20.2247 31.0225 20.1325 31.0809 20.0182 31.0809C19.904 31.0809 19.8118 31.0203 19.6954 30.9462C19.5614 30.8587 19.3923 30.751 19.166 30.751C18.9398 30.751 18.7707 30.8587 18.6367 30.9462C18.5247 31.0181 18.4368 31.0742 18.3292 31.0809C18.4368 31.1864 18.562 31.2582 18.6916 31.3098C18.7355 31.2851 18.7794 31.2582 18.819 31.2313C18.9376 31.155 19.0386 31.0899 19.166 31.0899C19.2934 31.0899 19.3944 31.155 19.5131 31.2313C19.6405 31.3143 19.7832 31.4041 19.9743 31.4175H20.0622C20.2533 31.4041 20.396 31.3143 20.5234 31.2313C20.642 31.155 20.7431 31.0899 20.8705 31.0899C20.9979 31.0899 21.0989 31.155 21.2175 31.2313C21.3449 31.3143 21.4877 31.4041 21.6788 31.4175H21.7666C21.9577 31.4041 22.1005 31.3143 22.2279 31.2313C22.3465 31.155 22.4475 31.0899 22.5749 31.0899C22.7023 31.0899 22.8033 31.155 22.9219 31.2313C23.0493 31.3143 23.1921 31.4041 23.3832 31.4175H23.4711C23.6622 31.4041 23.8049 31.3143 23.9323 31.2313C24.0509 31.155 24.152 31.0899 24.2794 31.0899C24.4067 31.0899 24.5078 31.155 24.6264 31.2313C24.7538 31.3143 24.8966 31.4041 25.0876 31.4175H25.1755C25.3666 31.4041 25.5094 31.3143 25.6368 31.2313C25.7554 31.155 25.8564 31.0899 25.9838 31.0899C26.1112 31.0899 26.2122 31.155 26.3308 31.2313C26.4582 31.3143 26.601 31.4041 26.7921 31.4175H26.88C27.071 31.4041 27.2138 31.3143 27.3412 31.2313C27.4598 31.155 27.5609 31.0899 27.6882 31.0899C27.8156 31.0899 27.9167 31.155 28.0353 31.2313C28.1627 31.3143 28.3055 31.4041 28.4965 31.4175H28.5844C28.7755 31.4041 28.9183 31.3143 29.0457 31.2313C29.1643 31.155 29.2653 31.0899 29.3927 31.0899C29.5201 31.0899 29.6211 31.155 29.7397 31.2313C29.7617 31.247 29.7859 31.2604 29.81 31.2761C29.922 31.2245 30.0275 31.1527 30.1197 31.0562C30.056 31.0315 29.9945 30.9911 29.922 30.9462C29.7881 30.8587 29.6189 30.751 29.3927 30.751ZM39.6435 15.7278C39.6435 16.5964 40.4606 17.3796 41.3238 18.2078C42.321 19.1638 43.3511 20.1513 43.3511 21.4373C43.3511 22.0387 43.0854 22.5639 42.5824 22.9521C42.3012 23.1698 42.0223 23.2888 41.8949 23.3359C41.8949 23.695 41.8576 24.0204 41.8202 24.3167C41.7719 24.7094 41.7324 25.0483 41.8092 25.3176C41.8927 25.6116 42.2946 25.9886 42.6197 26.2894C42.8064 26.4644 42.969 26.617 43.0502 26.7337C43.2237 26.9851 43.1381 27.5237 43.0458 28.0938C43.0107 28.3182 42.9755 28.5314 42.9646 28.702C42.9536 28.8748 42.9536 29.0768 42.9514 29.2945C42.9514 29.7972 42.9514 30.3156 42.8064 30.6118C42.6109 31.0113 41.9849 31.523 41.482 31.7048C41.4314 31.7272 41.3787 31.7474 41.3216 31.7654C41.3018 31.7721 41.2821 31.7789 41.2623 31.7856C41.2491 31.7923 41.2338 31.7991 41.2206 31.8058C41.2206 31.8058 41.2206 31.8035 41.2206 31.8013V31.8058C41.2008 31.8148 41.181 31.8215 41.1613 31.8282C41.1239 31.8417 41.0844 31.8574 41.0471 31.8686C41.0471 31.8686 41.0471 31.8641 41.0471 31.8597V31.8686C40.9965 31.8843 40.9438 31.8956 40.8933 31.9068C40.8867 31.9068 40.8779 31.909 40.8713 31.9113C40.733 31.9449 40.5858 31.9584 40.4035 31.9427C40.3596 31.9404 40.3178 31.936 40.2739 31.9315V31.927V31.9315C40.2322 31.927 40.1926 31.9202 40.1509 31.9135V31.9068V31.9135C40.1487 31.9135 40.1465 31.9135 40.1421 31.9135C40.0828 31.9023 40.0235 31.8866 39.9642 31.8709C39.9642 31.8709 39.9642 31.8709 39.9642 31.8664V31.8709C39.94 31.8641 39.9181 31.8552 39.8961 31.8484C39.8829 31.8439 39.8698 31.8417 39.8566 31.8372C39.358 31.6958 39.1823 31.5275 39.1208 31.348C39.0066 31.0584 39.1164 30.6545 39.2943 30.4615C39.5645 30.1675 41.0602 30.0216 41.315 29.4067C41.572 28.7895 41.315 27.82 41.315 27.82C41.315 27.82 41.0602 27.6741 39.8807 27.0592C39.1098 26.6552 38.6112 26.0133 38.3191 25.2615C38.117 25.3445 37.7085 25.5286 37.3307 25.8113C36.8013 26.2063 36.5575 26.7809 36.5443 27.2185C36.529 27.6606 36.6717 27.9524 36.529 28.4663C36.3884 28.9825 35.8129 29.1396 35.4263 29.5795C35.1013 29.9475 34.5434 30.6433 34.4841 30.7241C34.4248 30.8048 34.3413 30.9103 34.2007 31.0293C34.1019 31.1123 32.5534 31.3637 31.7846 31.238C31.4639 31.1864 31.7034 30.6904 31.9472 30.2864C32.4721 29.4156 33.8076 29.0386 34.4972 28.1746C35.1803 27.3083 34.5236 26.4308 34.5236 25.3737C34.5236 24.3167 35.4285 23.6052 35.4285 23.6052C34.7323 23.0127 33.8998 22.923 33.0124 22.1577C31.822 23.1272 31.9889 24.4917 31.8154 25.1942C31.7165 25.6026 31.4222 25.9303 31.0269 26.1031C31.0181 26.1076 31.0071 26.1098 30.9983 26.1143V27.4721H31.0027V29.9947C31.0027 30.1899 30.9873 30.3605 30.9632 30.5198C30.8951 30.9732 30.7347 31.2874 30.5283 31.5006C30.4777 31.5522 30.425 31.6016 30.3679 31.642C29.9923 31.9202 29.5179 31.9629 29.1357 31.9629H19.289C18.9156 31.9629 18.4544 31.9225 18.0854 31.6599C18.0041 31.6016 17.9272 31.5297 17.8547 31.449C17.668 31.2335 17.5275 30.9305 17.466 30.5019C17.444 30.347 17.4286 30.1809 17.4286 29.9924V27.4699V26.1233C17.4198 26.1188 17.4111 26.1166 17.4045 26.1143C17.0091 25.9415 16.7126 25.6138 16.6159 25.2054C16.4424 24.5029 16.5435 24.0743 16.2579 23.5648C16.0844 23.1878 15.7835 22.9252 15.5111 22.7502C15.3398 22.9095 14.9994 23.1519 14.369 23.3741C13.2905 23.7578 13.1324 23.7713 13.1324 23.7713C13.1324 23.7713 13.9077 24.3256 13.9077 25.3849C13.9077 26.4442 13.251 27.3172 13.9341 28.1858C14.6238 29.0498 15.9614 29.4269 16.4842 30.2976C16.728 30.7039 16.9674 31.1976 16.6467 31.2492C15.8779 31.3749 14.3316 31.1213 14.2306 31.0405C14.09 30.9215 14.0066 30.8161 13.9473 30.7353C13.8879 30.6545 13.33 29.961 13.005 29.5907C12.6184 29.1508 12.0429 28.9915 11.9024 28.4775C11.7596 27.9636 11.9024 27.6718 11.887 27.2297C11.8738 26.7921 11.63 26.2176 11.1007 25.8226C10.7229 25.5398 10.3143 25.3558 10.1122 25.2727C9.82012 26.0223 9.32153 26.6664 8.55057 27.0704C7.37108 27.6853 7.11629 27.8312 7.11629 27.8312C7.11629 27.8312 6.8593 28.8007 7.11629 29.4179C7.37108 30.0328 8.86466 30.1787 9.13702 30.4727C9.31494 30.6657 9.42476 31.0697 9.31054 31.3592C9.24904 31.5387 9.07333 31.707 8.57473 31.8484C8.56155 31.8529 8.54838 31.8552 8.5352 31.8597C8.51323 31.8664 8.48907 31.8754 8.46711 31.8821V31.8776V31.8821C8.4078 31.9 8.3507 31.9135 8.28919 31.9247C8.287 31.9247 8.2848 31.9247 8.28041 31.9247V31.918V31.9247C8.24087 31.9315 8.19914 31.9382 8.15741 31.9427V31.9382V31.9427C8.11348 31.9472 8.07175 31.9517 8.02782 31.9539C7.84551 31.9696 7.69835 31.9539 7.55997 31.9225C7.55338 31.9225 7.5446 31.9225 7.53801 31.918C7.48749 31.9068 7.43477 31.8956 7.38426 31.8799V31.8709V31.8799C7.34472 31.8686 7.30738 31.8552 7.27004 31.8395C7.25027 31.8327 7.2305 31.826 7.21074 31.817V31.8125V31.817C7.19536 31.8103 7.18218 31.8035 7.169 31.7968C7.14924 31.7901 7.12947 31.7833 7.1097 31.7766C7.05479 31.7587 7.00207 31.7362 6.94936 31.716C6.44637 31.5342 5.82038 31.0225 5.6249 30.6231C5.47993 30.3268 5.47993 29.8061 5.47993 29.3057C5.47993 29.0902 5.47993 28.886 5.46675 28.7154C5.45577 28.5471 5.42063 28.3339 5.38549 28.1072C5.29324 27.5372 5.20757 26.9986 5.38109 26.7472C5.46236 26.6305 5.6249 26.4779 5.8116 26.3028C6.13448 25.9999 6.53862 25.6251 6.62209 25.3311C6.69896 25.0618 6.65723 24.7206 6.61111 24.3279C6.57596 24.0316 6.53643 23.7062 6.53643 23.3471C6.40903 23.3 6.12789 23.1811 5.84894 22.9634C5.34595 22.5729 5.08018 22.0499 5.08018 21.4485C5.08018 20.1625 6.11032 19.175 7.1075 18.219C7.97291 17.3886 8.78779 16.6054 8.78779 15.7391C8.78779 15.2588 8.64941 14.9401 8.39023 14.8212C8.31775 14.7875 8.23428 14.7695 8.14862 14.7695C8.04758 14.783 7.9114 14.8279 7.77962 14.9581C7.6017 15.1331 7.41281 15.7144 7.31836 16.161C7.2327 16.5627 6.8022 17.7567 5.01209 16.8859C6.89884 17.1238 6.00489 14.6102 8.00585 14.5429C8.17498 14.5204 8.34191 14.5384 8.48468 14.6057C8.72848 14.7179 9.01842 15.0074 9.01842 15.7391C9.01842 16.7086 8.16619 17.5255 7.26345 18.3918C6.3036 19.3142 5.31081 20.2658 5.31081 21.4485C5.31081 21.9781 5.53704 22.4225 5.98292 22.7704C6.19598 22.9364 6.41123 23.0397 6.54521 23.0958C6.5496 23.0083 6.55619 22.9162 6.56718 22.8242C6.57596 22.7457 6.59134 22.6694 6.60891 22.5953C6.08176 22.4494 5.78963 22.0612 5.78524 21.4821C5.77645 20.3421 6.63087 19.5162 7.45674 18.7172C8.31994 17.8846 9.2117 17.0205 9.2117 15.7772C9.2117 14.9917 8.93275 14.4957 8.4078 14.3409C7.86528 14.1815 7.14924 14.4307 6.80439 14.7763C6.8 14.7808 6.79341 14.7875 6.78902 14.792C6.77145 14.8099 6.75607 14.8256 6.74289 14.8436C6.7363 14.8503 6.73191 14.8571 6.72532 14.8638C6.70775 14.8862 6.69018 14.9109 6.677 14.9334C6.24869 15.5528 6.15424 16.7557 5.26468 16.5448C6.12569 16.0353 5.56999 15.6874 6.6155 14.6349C6.62648 14.6214 6.63966 14.6102 6.65284 14.5967C6.65943 14.59 6.66602 14.5833 6.6748 14.5743C7.08554 14.1883 7.84771 13.9257 8.4737 14.1097C9.31933 14.3588 9.44453 15.2588 9.44453 15.775C9.44453 17.1215 8.51543 18.0192 7.61708 18.8878C6.79121 19.6867 6.00928 20.4408 6.01806 21.4777C6.02246 21.9512 6.2443 22.2497 6.677 22.3664C6.93179 21.6796 7.55558 21.2645 8.31335 20.764C8.49346 20.645 8.67797 20.5216 8.87125 20.3892C9.74983 19.7787 10.1869 18.9282 10.3451 18.5601C10.0903 17.4088 10.1957 16.3652 10.6152 15.5259C10.9996 14.7561 10.6438 13.7304 10.9755 12.9292C10.8063 12.9472 10.4549 12.9158 10.4044 12.3659C10.3407 11.6433 11.1204 11.5737 11.4082 11.4951C11.4916 11.4009 11.6629 11.2528 11.8958 11.0867L11.6388 10.593C11.3862 10.2451 11.0172 10.4134 10.7558 9.9466C10.3824 9.27781 11.1358 8.92995 11.4521 8.81549C11.6476 8.618 11.9441 8.47212 12.1286 8.39357C12.0254 8.3442 11.9441 8.24545 11.9265 8.11528C11.9046 7.97165 11.9726 7.82352 12.0956 7.74946C12.2955 7.63052 12.5415 7.72927 12.614 7.94023C12.647 8.03673 12.6382 8.13772 12.5964 8.223C12.7897 8.16465 13.1082 8.08835 13.3828 8.11528C13.6991 7.99858 14.4986 7.78762 14.6172 8.54618C14.7006 9.07583 14.3097 9.18355 14.3272 9.61445L14.3953 9.987C14.5513 9.96905 14.705 9.96456 14.8522 9.97578C14.9708 9.98476 15.0674 10.0072 15.2497 10.0745C15.4255 10.1396 15.6649 9.96007 15.8801 9.86805C16.0954 9.77828 16.225 9.76706 16.326 10.2653C16.4292 10.7658 16.08 11.1159 16.08 11.1159L16.4007 11.5445C16.7236 11.9754 17.3342 12.3233 17.5516 13.028C17.6922 13.4836 17.8372 14.0581 17.8525 14.5496H18.2062C18.1425 14.4778 18.1073 14.3947 18.1073 14.305V14.1591V13.8629C18.1073 13.3669 18.5005 12.9629 18.9837 12.9629H19.535C20.0182 12.9629 20.4114 13.3669 20.4114 13.8629V14.1569V14.305C20.4114 14.3947 20.3763 14.4778 20.3126 14.5496H28.1188C28.0551 14.4778 28.0199 14.3947 28.0199 14.305V14.1591V13.8629C28.0199 13.3669 28.4131 12.9629 28.8963 12.9629H29.4476C29.9308 12.9629 30.324 13.3669 30.324 13.8629V14.1569V14.305C30.324 14.3947 30.2888 14.4778 30.2251 14.5496H30.9961V16.4034C31.2751 16.4797 32.0702 16.547 32.549 16.4505C32.806 15.8849 33.0652 15.4518 33.0652 15.4518C33.0652 15.4518 32.18 15.3553 32.3118 14.2848C32.1844 14.1411 32.2041 13.8337 32.2327 13.4925C32.2832 12.9292 32.1427 12.8193 32.1448 12.5185C32.1514 12.2492 32.1998 12.063 32.4216 11.8026C32.4589 11.6769 32.5292 11.457 32.6347 11.2505C32.7159 11.0867 32.8741 10.9139 33.008 10.7837V10.7815C33.008 10.7815 32.8236 10.3753 33.0652 9.987C33.3046 9.60099 33.41 9.65485 33.5638 9.79848C33.6824 9.9107 33.8669 10.0745 34.0074 10.1441L34.1063 9.60772C34.1238 9.17457 33.7329 9.06685 33.8163 8.53945C33.9371 7.78088 34.7345 7.99184 35.0508 8.10855C35.3253 8.08162 35.6438 8.15792 35.8371 8.21627C35.7953 8.13099 35.7866 8.03 35.8195 7.93349C35.892 7.72029 36.138 7.62154 36.3379 7.74273C36.4609 7.81679 36.529 7.96267 36.507 8.10855C36.4872 8.23871 36.406 8.33746 36.3049 8.38684C36.4894 8.46539 36.7859 8.61126 36.9814 8.80876C37.2999 8.92097 38.0511 9.27108 37.6777 9.93987C37.4185 10.4044 37.0473 10.2384 36.7947 10.5862L36.6761 10.8151C36.9924 10.869 37.7963 11.0463 37.7107 11.659C37.6492 12.1056 37.1967 12.0338 36.9726 12.1909C36.9353 12.9113 36.8233 13.1447 36.6959 13.5015C36.5619 13.8763 36.2039 14.1905 35.9996 14.4464C35.8019 14.6955 35.7558 14.9334 35.7207 15.169C35.6482 15.7503 36.2544 16.253 36.6498 16.6098C37.4493 17.3325 37.8051 18.3761 38.1719 19.0516C38.4684 19.4668 38.9099 19.9695 39.5601 20.3825C39.6633 20.4475 39.7643 20.5104 39.8632 20.5732C40.7879 21.1522 41.4929 21.5966 41.7631 22.3619C42.1958 22.2452 42.4154 21.949 42.4198 21.4754C42.4286 20.4386 41.6489 19.6845 40.8208 18.8855C39.9225 18.017 38.9934 17.1193 38.9934 15.7727C38.9934 15.2588 39.1186 14.3566 39.9642 14.1075C40.5902 13.9234 41.3502 14.186 41.7609 14.572C41.7697 14.5788 41.7763 14.5855 41.7851 14.5945C41.7982 14.608 41.8114 14.6192 41.8224 14.6326C42.8701 15.6852 42.3144 16.0331 43.1754 16.5425C42.2837 16.7535 42.1914 15.5505 41.7631 14.9311C41.7477 14.9087 41.7302 14.8862 41.7126 14.8616C41.706 14.8548 41.7016 14.8481 41.695 14.8414C41.6796 14.8234 41.6643 14.8054 41.6489 14.7897C41.6445 14.7852 41.6379 14.7785 41.6335 14.774C41.2865 14.4284 40.5726 14.1771 40.0301 14.3386C39.503 14.4935 39.2262 14.9917 39.2262 15.775C39.2262 17.0205 40.118 17.8823 40.9812 18.715C41.807 19.5139 42.6614 20.3398 42.6527 21.4799C42.6483 22.0567 42.3561 22.4449 41.8312 22.5908C41.8488 22.6649 41.8619 22.7389 41.8707 22.8197C41.8817 22.9117 41.8883 23.0015 41.8927 23.0913C42.0245 23.0374 42.2419 22.9319 42.455 22.7659C42.9009 22.418 43.1271 21.9736 43.1271 21.444C43.1271 20.2613 42.1343 19.3097 41.1745 18.3873C40.2717 17.521 39.4195 16.7041 39.4195 15.7346C39.4195 15.0007 39.7094 14.7134 39.9532 14.6012C40.096 14.5339 40.2629 14.5159 40.4342 14.5384C42.4352 14.6057 41.5413 17.117 43.428 16.8814C41.6379 17.7522 41.2074 16.5582 41.1217 16.1565C41.0273 15.7099 40.8384 15.1286 40.6605 14.9536C40.5287 14.8234 40.3925 14.7785 40.2915 14.7651C40.2058 14.7651 40.1224 14.783 40.0499 14.8167C39.7907 14.9379 39.6523 15.2543 39.6523 15.7346L39.6435 15.7278ZM36.3642 10.1261C36.3862 10.1396 36.4082 10.1553 36.4279 10.1688C36.496 10.2159 36.5729 10.2698 36.6168 10.3124C36.7201 10.3147 36.8474 10.2428 36.9814 10.1845C37.1593 10.079 37.3285 10.0072 37.4075 9.76033C37.5086 9.44164 37.3109 9.21497 37.1571 9.09378C37.1703 9.14091 37.1769 9.18804 37.1747 9.23741C37.1462 9.78053 36.6168 9.80073 36.3642 10.1261ZM35.7075 9.79624C35.8854 9.86581 36.0501 9.94436 36.1973 10.0252C36.2456 9.93314 36.3884 9.67953 36.5487 9.51795C36.7728 9.29576 36.9067 9.12744 36.5553 8.8312C36.3884 8.68981 36.2873 8.60453 36.1446 8.51252C36.149 8.6741 36.1446 8.90751 36.0941 9.09154C36.0392 9.28903 35.8437 9.5965 35.7075 9.79399V9.79624ZM34.9387 8.93668C34.9629 9.14091 34.9431 9.42144 34.9299 9.56283C35.0837 9.59201 35.2484 9.63689 35.4176 9.69076C35.4285 9.48204 35.4615 9.17233 35.5559 8.89629C35.6174 8.71674 35.7602 8.53271 35.8656 8.41152C35.7009 8.39132 35.5691 8.39357 35.3561 8.39581C34.8992 8.40255 34.9036 8.618 34.9387 8.93444V8.93668ZM34.1941 9.17682C34.2622 9.30923 34.3171 9.44613 34.4006 9.51122C34.4621 9.50673 34.5544 9.5157 34.6356 9.52244C34.6686 9.52468 34.7015 9.52917 34.7367 9.53366C34.7059 9.13642 34.3303 8.74143 34.6268 8.31951C34.6554 8.27911 34.6883 8.24545 34.7279 8.21852C34.5324 8.21403 34.2403 8.2634 34.1238 8.57535C34.0338 8.81549 34.1238 8.98157 34.1963 9.17906L34.1941 9.17682ZM33.4979 10.4134C33.5374 10.4022 33.7043 10.2608 33.8932 10.2316C33.6999 10.1217 33.5308 9.98476 33.4429 9.81644C33.3968 10.0543 33.1838 10.3259 33.4957 10.4134H33.4979ZM33.1464 14.3813C33.1464 14.3813 33.2782 14.1883 33.1926 13.9481C33.1047 13.7147 32.9597 13.6048 32.9663 13.4701C32.9751 13.3377 33.1245 13.2502 33.2782 13.0886C33.4342 12.9292 33.5769 12.5948 33.5001 12.4377C33.4276 12.2762 33.3199 12.1527 33.1354 12.0899C32.9531 12.027 32.9026 11.9305 32.9839 11.7936C33.063 11.6522 33.2738 11.668 33.4166 11.8049C33.555 11.944 33.7746 12.2515 33.6999 12.6173C33.6231 12.9853 33.399 13.2479 33.2716 13.4073C33.1398 13.5644 33.3112 13.7753 33.6033 13.8427C33.8954 13.9145 34.0777 13.8898 34.1107 13.8494C34.1436 13.809 34.1392 13.5531 34.1853 13.2614C34.2337 12.9719 34.6686 12.6711 35.02 12.6801C35.3736 12.6846 35.5867 12.7677 35.5098 13.0257C35.3099 13.3579 34.908 12.9651 34.908 12.9651C34.908 12.9651 34.5653 13.1447 34.4445 13.4275C34.3281 13.7147 34.3677 14.0042 34.1963 14.0536C34.0294 14.1007 33.6406 13.9728 33.5396 14.1075C33.432 14.2421 33.399 14.4419 33.399 14.4419C33.399 14.4419 33.9437 15.2655 34.495 14.9468C34.7213 14.8167 35.031 14.305 35.3978 14.1232C35.8019 13.9234 36.272 13.6541 36.272 13.0594C36.272 13.0325 36.2632 12.817 36.2632 12.7407C36.2368 12.3076 36.3576 12.2133 36.4104 12.1415C36.5685 11.9283 36.6432 11.8767 36.6366 11.5243C36.9287 11.3897 37.3636 11.2438 37.603 11.65C37.7634 11.0126 36.7047 10.9273 36.496 10.9475C36.3818 10.9655 36.4411 11.1024 36.3906 11.1002C36.3423 11.0979 36.261 11.0126 36.1665 10.9296C36.1182 10.887 35.6548 10.5907 35.2792 10.4852C34.7608 10.3416 34.1612 10.3304 34.0184 10.3438C33.8756 10.3573 33.6582 10.4179 33.5264 10.5368C33.4144 10.6378 33.2892 10.7456 33.1552 10.8533C33.0212 10.961 32.8631 11.1293 32.7642 11.3268C32.7269 11.3986 32.694 11.475 32.6676 11.5468C32.9026 11.3336 33.0761 11.2573 33.186 11.2483C33.2233 11.2483 33.2958 11.2932 33.2958 11.2932C33.2958 11.2932 32.773 11.549 32.6061 11.8767C32.4348 12.2021 32.5292 12.6689 32.5841 12.9562C32.6412 13.2457 32.571 13.4925 32.4831 13.6788C32.393 13.8651 32.3008 14.0963 32.4897 14.3027C32.6764 14.5092 33.1486 14.3813 33.1486 14.3813H33.1464ZM30.9873 18.8115L31.9559 19.1414C31.9559 19.1414 31.9691 17.8644 32.3996 16.8073C31.7297 16.8859 30.9895 16.7535 30.9895 16.7535V18.8092L30.9873 18.8115ZM31.9472 19.4713C31.6902 19.3838 31.0005 19.1593 30.9851 19.1526V21.2398C31.1762 21.0221 31.6726 20.5014 32.035 20.075C31.9647 19.7339 31.945 19.4713 31.945 19.4713H31.9472ZM28.2418 13.8696C28.2418 14.2421 28.3955 14.2982 28.4087 14.2399C28.446 14.0918 28.5163 13.9773 28.602 13.9347C28.602 13.9347 28.5778 14.1389 28.6195 14.2623C28.6503 14.3543 28.681 14.4194 28.8897 14.4194C29.05 14.4194 29.1028 14.1434 29.1401 13.9549C29.1445 13.9279 29.1621 13.9302 29.1665 13.9571C29.2038 14.1434 29.2851 14.406 29.4388 14.4194C29.5926 14.4329 29.6541 14.3566 29.6848 14.2623C29.7266 14.1389 29.7024 13.9347 29.7024 13.9347C29.7815 13.9751 29.8474 14.0761 29.8869 14.2085C29.922 14.3229 30.0868 14.2421 30.0868 13.8718C30.0868 13.5015 29.7968 13.2075 29.4388 13.2075H28.8875C28.5317 13.2075 28.2396 13.5015 28.2396 13.8718L28.2418 13.8696ZM18.3314 13.8696C18.3314 14.2421 18.4851 14.2982 18.4983 14.2399C18.5356 14.0918 18.6059 13.9773 18.6916 13.9347C18.6916 13.9347 18.6674 14.1389 18.7092 14.2623C18.7399 14.3543 18.7707 14.4194 18.9793 14.4194C19.1397 14.4194 19.1924 14.1434 19.2297 13.9549C19.2341 13.9279 19.2517 13.9302 19.2561 13.9571C19.2934 14.1434 19.3747 14.406 19.5284 14.4194C19.6822 14.4329 19.7437 14.3566 19.7744 14.2623C19.8162 14.1389 19.792 13.9347 19.792 13.9347C19.8711 13.9751 19.937 14.0761 19.9765 14.2085C20.0117 14.3229 20.1764 14.2421 20.1764 13.8718C20.1764 13.5015 19.8865 13.2075 19.5284 13.2075H18.9771C18.6213 13.2075 18.3292 13.5015 18.3292 13.8718L18.3314 13.8696ZM15.3596 10.1867C15.5441 10.2945 15.6649 10.5077 15.7022 10.5346C16.0602 10.5683 15.9438 10.2024 15.9856 9.93538C15.8318 10.0745 15.6012 10.1486 15.3596 10.1867ZM13.6837 9.54488C13.7188 9.54039 13.7518 9.53815 13.7847 9.53366C13.866 9.52693 13.9582 9.51795 14.0197 9.52244C14.1032 9.45735 14.1581 9.32045 14.2262 9.18804C14.3009 8.99279 14.3865 8.82671 14.2987 8.58433C14.1823 8.27013 13.8901 8.22076 13.6947 8.22749C13.7342 8.25442 13.7671 8.28809 13.7957 8.32848C14.0922 8.75041 13.7166 9.1454 13.6859 9.54263L13.6837 9.54488ZM12.5547 8.42723C12.6601 8.54842 12.8029 8.73245 12.8644 8.91199C12.9588 9.1858 12.9918 9.49775 13.0028 9.70647C13.1719 9.6526 13.3366 9.60772 13.4904 9.57854C13.4772 9.43715 13.4574 9.15662 13.4816 8.95239C13.5189 8.63595 13.5211 8.4205 13.0643 8.41377C12.8512 8.41152 12.7216 8.40928 12.5547 8.42948V8.42723ZM11.8694 9.53366C12.0297 9.69524 12.1725 9.94885 12.2208 10.0409C12.3658 9.96007 12.5327 9.88152 12.7106 9.81195C12.5745 9.61221 12.379 9.30699 12.3241 9.10949C12.2736 8.92546 12.2692 8.69206 12.2736 8.53047C12.1308 8.62248 12.0297 8.70777 11.8628 8.84916C11.5114 9.14764 11.6454 9.31372 11.8694 9.5359V9.53366ZM11.9902 10.1845C12.01 10.171 12.0319 10.1553 12.0539 10.1419C11.8035 9.81868 11.272 9.79624 11.2434 9.25312C11.2412 9.20375 11.2478 9.15662 11.261 9.10949C11.105 9.23068 10.9074 9.45735 11.0106 9.77604C11.0897 10.0207 11.2588 10.0947 11.4367 10.2002C11.5707 10.2586 11.6981 10.3304 11.8013 10.3281C11.8452 10.2855 11.9221 10.2339 11.9902 10.1845ZM11.7047 11.4637C11.8672 11.4368 12.1528 11.5288 11.7486 12.0697C11.384 12.5567 11.0809 13.0863 11.1578 13.8875C11.2324 14.691 11.5377 15.0815 11.261 15.8647C10.9842 16.648 11.4038 17.6041 11.4038 17.6041C11.4038 17.6041 11.5883 17.1372 11.7157 16.6839C12.0144 17.9115 12.6645 18.5287 12.6645 18.5287C12.6645 18.5287 12.4976 17.9452 12.8227 16.7445C13.0489 18.5422 15.0213 18.3851 16.1569 19.3366C16.6621 19.7586 17.1189 20.3421 17.4198 20.7617V14.5608H17.6021C17.5736 14.3409 17.5143 13.9481 17.4001 13.5329C17.2309 12.9203 16.9608 12.3008 16.3941 11.7016C15.8296 11.0979 15.7989 10.9947 15.6231 10.658C15.4474 10.3192 15.1487 10.1531 14.7643 10.1261C14.38 10.0992 13.1324 10.2922 11.7025 11.466L11.7047 11.4637ZM11.4587 12.2245C11.5312 12.1325 11.8013 11.8138 11.7837 11.6433C11.6586 11.6029 10.3495 11.6298 10.5076 12.3727C10.8151 11.8924 11.362 12.2178 11.4587 12.2245ZM10.7141 24.8059C12.5503 25.5779 12.144 27.701 12.1264 28.0018C12.0891 28.6818 12.6755 28.7738 13.1653 29.2855C13.8177 29.97 14.4173 30.6792 14.4876 30.7039C14.6809 30.7375 16.2052 30.9193 16.2997 30.8542C15.8626 29.8959 13.8045 29.1082 13.3696 28.2352C13.0577 27.6112 13.0511 26.9784 13.1214 26.4936C13.1961 26.0111 13.6639 23.3673 10.7119 24.8059H10.7141ZM15.2717 22.6155C15.0674 22.51 14.9159 22.4651 14.9159 22.4651C12.4712 23.7085 11.4323 22.9364 10.2968 24.6802C10.3341 24.687 10.378 24.6959 10.4241 24.7072C10.5515 24.5792 10.8195 24.3503 11.261 24.1349C11.9221 23.8095 12.5811 23.6972 13.4245 23.4436C14.2064 23.2125 14.9269 22.8467 15.2695 22.6155H15.2717ZM30.6293 26.2108C30.5678 26.2198 30.5041 26.2265 30.4426 26.2288V28.5875H28.2901L28.2813 28.5583L28.2681 28.509L28.2527 28.4506L28.2396 28.399L28.2242 28.3451L28.2088 28.289L28.1934 28.2374L28.1781 28.1835L28.1627 28.1297L28.1473 28.0758L28.1319 28.0197L28.1166 27.9658L28.1122 27.9479H25.8454L25.8388 27.9658L25.8235 28.0197L25.8059 28.0758L25.7883 28.1297L25.7729 28.1835L25.7554 28.2374L25.74 28.2913L25.7224 28.3474L25.7049 28.4012L25.6895 28.4529L25.6719 28.5112L25.6565 28.5606L25.6477 28.5898H22.9549V28.5606L22.9461 28.5112L22.9395 28.4529L22.9329 28.4012L22.9263 28.3474L22.9198 28.2913L22.9132 28.2396L22.9066 28.1858L22.9 28.1319L22.8934 28.0781L22.8868 28.022L22.8802 27.9681L22.8736 27.912L22.867 27.8581L22.8604 27.8043L22.8539 27.7504L22.8473 27.6943L22.8407 27.6427L22.8385 27.6157H20.5783V27.6427H20.5761L20.5695 27.6943L20.563 27.7504L20.5564 27.8043L20.5498 27.8581L20.5432 27.912L20.5366 27.9681L20.53 28.022L20.5234 28.0781L20.5168 28.1319L20.5102 28.1858L20.5037 28.2396L20.4971 28.2935L20.4905 28.3496L20.4839 28.4035L20.4773 28.4551L20.4707 28.5134L20.4641 28.5628C20.4553 28.5449 20.4465 28.5292 20.4356 28.5134C20.4246 28.4932 20.4114 28.473 20.3982 28.4551C20.385 28.4371 20.3741 28.4192 20.3609 28.4035C20.3455 28.3833 20.3257 28.3653 20.3082 28.3496C20.2884 28.3294 20.2642 28.3115 20.2423 28.2935C20.2159 28.2733 20.1896 28.2576 20.161 28.2419C20.1215 28.2194 20.0797 28.2015 20.038 28.188C19.9765 28.1678 19.9084 28.1589 19.8403 28.1589C19.7722 28.1589 19.7063 28.1701 19.6426 28.188C19.5987 28.2015 19.557 28.2194 19.5153 28.2419C19.4867 28.2576 19.4603 28.2756 19.434 28.2935C19.4098 28.3115 19.3879 28.3294 19.3681 28.3496C19.3505 28.3676 19.3329 28.3855 19.3176 28.4035C19.3044 28.4192 19.2912 28.4371 19.2802 28.4551C19.2671 28.473 19.2539 28.4932 19.2429 28.5134C19.2341 28.5292 19.2253 28.5471 19.2187 28.5628C19.2143 28.5718 19.2078 28.583 19.2034 28.592H17.9602V28.4035V28.2396V28.1319V27.6449V27.4811V27.4295V27.1602V27.1063V27.0524V26.4599V26.4061V26.3522V26.249C17.8965 26.2467 17.835 26.24 17.7735 26.231V27.9793V30.1069C17.7735 31.1168 18.3951 31.6105 19.2956 31.6105H29.0962C29.9967 31.6105 30.6183 31.1168 30.6183 30.1069V27.4788V26.2198L30.6293 26.2108ZM21.1274 26.3432L21.1253 26.3971L21.1231 26.451L21.1209 26.5048V26.5587L21.1165 26.6126V26.6664L21.1099 26.7225V26.7764L21.1055 26.828L22.3443 26.8302L22.3421 26.7764V26.7225L22.3377 26.6664V26.6126L22.3333 26.5587V26.5048L22.3289 26.451L22.3267 26.3971L22.3245 26.3432L22.3223 26.2871V26.2333L22.3179 26.1817V26.1255L22.3135 26.0739V26.0201L22.3091 25.964L22.3069 25.9101V25.8585L22.3025 25.8024V25.7485L22.2982 25.6924V25.6408L22.2938 25.5869V25.5331L22.2894 25.4814L22.2872 25.4276V25.3715H22.285V25.3199L22.2806 25.266V25.2121H22.2784L21.1955 25.2099V25.2144V25.2682L21.1889 25.3221V25.3737H21.1868V25.4298H21.1846V25.4837H21.1824V25.5353L21.178 25.5892V25.643L21.1736 25.6946V25.7507L21.167 25.8046V25.8607L21.1626 25.9123V25.9662H21.1604V26.0223L21.1538 26.0762V26.1278L21.1472 26.1839V26.2355L21.1428 26.2894V26.3455L21.1274 26.3432ZM22.3069 25.1156V25.0999V24.7767V24.7094H21.1274V24.7767V25.0999V25.1156H22.3069ZM20.9561 26.9671L20.9517 26.9941L20.9451 27.0457L20.9364 27.0996L20.9276 27.1534L20.921 27.2073L20.9122 27.2611L20.9034 27.315L20.8946 27.3711L20.888 27.425L20.8814 27.4766L20.8771 27.508H22.5551V27.4766H22.5507L22.5442 27.425L22.5376 27.3711L22.531 27.315L22.5244 27.2611L22.5178 27.2073L22.5112 27.1557L22.5046 27.1018L22.498 27.0479L22.4936 26.9963V26.9694H20.9473L20.9561 26.9671ZM25.7664 27.5821V27.6382V27.8402H28.2132V27.6382V27.5798H25.7664V27.5821ZM28.0397 27.4631V27.425V27.1557V27.1018V27.0479V26.9694H25.9574V27.0479V27.1018V27.1557V27.4272V27.4654H28.0397V27.4631ZM37.6997 24.7924C34.7476 23.3539 35.2155 25.9999 35.2902 26.4801C35.3604 26.9649 35.3539 27.5978 35.042 28.2217C34.6071 29.0925 32.5468 29.8825 32.1119 30.8408C32.2085 30.9058 33.7307 30.7241 33.924 30.6904C33.9943 30.6657 34.5961 29.9565 35.2462 29.272C35.7338 28.7603 36.3225 28.6683 36.2852 27.9883C36.2676 27.6876 35.8612 25.5645 37.6975 24.7924H37.6997ZM38.117 24.669C36.8892 23.1609 36.16 23.1923 33.7483 21.6482C33.7483 21.6482 33.5813 21.7402 33.3309 21.913C33.9284 22.4741 36.4104 23.0958 37.9896 24.6959C38.0379 24.6847 38.0797 24.6757 38.117 24.669ZM41.5786 25.3849C41.4885 25.0685 41.5325 24.7072 41.583 24.2875C41.6335 23.8656 41.6906 23.3875 41.6269 22.8422C41.5171 21.8906 40.7659 21.4216 39.7292 20.773C39.6303 20.7101 39.5293 20.6473 39.4261 20.5822C39 20.3129 38.1763 19.5184 38.084 19.4286C37.5415 18.8945 37.3636 17.8419 36.6981 17.1552C36.4389 16.8881 36.2654 16.7041 36.0106 16.3719C35.2594 15.5079 35.4813 14.8234 35.6833 14.507C35.8063 14.3162 36.0589 14.0716 36.0282 14.0402C36.0128 14.0244 35.8766 14.1591 35.7426 14.2399C35.5999 14.3252 35.4878 14.3723 35.2792 14.5743C35.1957 14.6573 35.1101 14.7381 35.0244 14.8189C34.6949 15.1286 34.0294 15.7772 33.2057 14.6214C33.2057 14.6214 32.8894 14.7269 32.5929 14.5922C32.6764 15.3261 33.2167 15.2476 33.8098 15.3014C33.667 15.3575 33.5396 15.4226 33.3375 15.4496C33.1882 15.9725 32.0482 17.2091 32.2898 19.7563L32.5117 19.4511C32.4875 17.7006 32.9971 16.7647 33.5572 15.9455C33.5703 15.9253 33.6011 15.9455 33.5923 15.968C33.0805 17.0654 32.8499 17.815 32.9795 18.7419C33.5484 17.6557 33.8185 17.438 34.1722 17.3303C33.1947 18.1898 33.5528 18.8137 32.0943 20.5687C31.9603 20.7303 31.3629 21.4462 31.1499 21.7021C31.0927 21.7694 31.0378 21.8367 30.9829 21.8996C30.838 22.0679 30.7084 22.216 30.6249 22.3036V22.243V21.6348V14.902H17.7801V20.9637V21.1029V21.5944C17.7801 21.5944 17.7779 21.5944 17.7757 21.5944V22.5751C17.7757 22.5751 17.6417 22.326 17.4176 21.9647C17.343 21.8435 17.2595 21.7111 17.1651 21.5697C16.6313 20.7572 15.8274 19.6867 15.0674 19.2917C14.4568 18.9753 13.7496 18.9439 12.9391 18.0439C12.871 18.4322 13.0643 19.0965 13.0643 19.0965C13.0643 19.0965 12.0913 18.8676 11.6915 17.6198C11.5905 18.0013 11.5136 18.4681 10.7822 18.8698C10.4066 19.4511 9.94971 19.8236 9.58949 20.0862C9.41378 20.2635 9.2139 20.4386 8.98327 20.5979C8.78779 20.7326 8.60109 20.856 8.42098 20.9772C7.52703 21.5674 6.87907 21.9961 6.77804 22.8624C6.71434 23.41 6.77145 23.888 6.82197 24.3077C6.87248 24.7251 6.91641 25.0887 6.82636 25.4051C6.72532 25.7642 6.29482 26.1637 5.94997 26.4869C5.77865 26.6462 5.61831 26.7966 5.55242 26.8931C5.46236 27.0233 5.49311 27.3756 5.54363 27.7369C5.64247 27.5394 5.8116 27.4093 5.94997 27.3307C6.02465 27.2881 6.11031 27.3689 6.07517 27.4497C5.95217 27.7302 5.75669 28.2509 5.6864 28.8523C5.69079 28.996 5.69079 29.1508 5.69079 29.3146C5.69079 29.768 5.69079 30.2797 5.8116 30.5266C5.85113 30.6096 5.91703 30.6971 5.9961 30.7891C6.02905 30.825 6.06639 30.8587 6.10812 30.8901C6.23332 30.9889 6.40464 31.0427 6.58475 31.1123C6.65064 31.1325 6.72532 31.1639 6.80439 31.2066C6.82416 31.2155 6.84393 31.2245 6.8637 31.2357C7.10311 31.3637 7.27663 31.4624 7.45454 31.5028C7.58413 31.5253 7.70933 31.5185 7.82355 31.4759C7.83673 31.4714 7.84771 31.4669 7.85869 31.4624C8.02782 31.3659 8.09591 31.1841 8.24966 31.1841C8.26943 31.1819 8.28919 31.1819 8.31116 31.1841H8.31555C8.49346 31.1931 8.64502 31.229 8.7219 31.1303C8.74825 31.0966 8.76802 31.0607 8.7812 31.0225C8.7812 31.0136 8.78559 31.0001 8.78779 30.9911C8.81415 30.7128 8.64282 30.6837 8.17059 30.5221C7.69835 30.3627 6.78243 30.2864 6.6792 29.4673C6.58036 28.6459 6.46394 27.8806 7.22611 27.1646C7.98608 26.4465 9.14361 26.5654 9.63342 24.6309C10.1342 22.3552 11.25 22.0028 11.25 22.0028C11.25 22.0028 10.5647 22.73 10.4 23.9441C11.4631 22.8242 12.8249 23.0195 14.1339 22.115C12.7172 21.1814 13.8001 19.2603 13.8001 19.2603C13.8001 19.2603 14.1471 20.7124 15.1048 21.2847C15.6012 21.5809 16.0624 21.9871 16.4051 22.501C16.5962 22.7861 16.7499 23.1025 16.8532 23.4526C17.0596 24.1596 17.0816 25.0191 17.4111 25.4568C17.5033 25.5802 17.6219 25.6677 17.7735 25.7126C17.8306 25.7283 17.8921 25.7395 17.9602 25.7418C17.9646 25.7418 17.9668 25.7418 17.969 25.7418C18.0085 25.7418 18.0502 25.7418 18.092 25.7418C18.2457 25.7373 18.4873 25.7261 18.5686 25.56C18.6213 25.45 18.5752 25.3198 18.54 25.2121C18.4983 25.0842 18.461 24.954 18.4192 24.8261C18.3006 24.4625 18.1732 23.677 18.1644 23.6636H18.2259H18.2611H18.5093H20.5476H21.6282V23.6681V23.704V23.9531L21.5975 23.9733L21.514 24.0272L21.4328 24.0788L21.3471 24.1349L21.2636 24.1887L21.1802 24.2426L21.1209 24.2808H21.3076V24.6017H22.129V24.2808H22.3004L22.2432 24.2426L22.162 24.1887L22.0807 24.1349L21.9972 24.0788L21.9182 24.0272L21.8369 23.9733L21.7996 23.9486V23.6613H24.7758H29.9791H30.045H30.2098C30.1966 23.6972 30.0011 24.7206 29.9769 24.8126C29.9418 24.9428 29.8979 25.0707 29.8561 25.1987C29.821 25.3064 29.7727 25.4366 29.8276 25.5465C29.9089 25.7126 30.1505 25.7238 30.3042 25.7283C30.346 25.7283 30.3855 25.7283 30.4272 25.7283C30.4294 25.7283 30.4316 25.7283 30.436 25.7283C30.5041 25.7261 30.5656 25.7148 30.6227 25.6991C30.7743 25.6565 30.8907 25.569 30.9829 25.45C31.3168 25.0146 31.3366 24.1506 31.5452 23.4414C31.6572 23.0554 31.8329 22.7098 32.0504 22.4045C32.3865 21.931 32.8235 21.554 33.2914 21.2734C34.249 20.7011 35.881 20.0593 36.16 18.1202C36.2983 19.4421 35.5933 20.4879 34.3501 21.352C35.2858 22.2407 36.7332 22.528 38.0269 24.0967C37.8798 22.8197 37.1462 21.9916 37.1462 21.9916C37.1462 21.9916 38.2642 22.3439 38.7628 24.6196C39.2526 26.552 40.4101 26.4353 41.1701 27.1534C41.9322 27.8716 41.8158 28.6346 41.717 29.456C41.6137 30.2752 40.6978 30.3515 40.2256 30.5108C39.7533 30.6724 39.582 30.7016 39.6084 30.9799C39.6084 30.9889 39.6128 31.0023 39.615 31.0113C39.6282 31.0495 39.6479 31.0854 39.6743 31.119C39.7512 31.2178 39.9027 31.1819 40.0806 31.1729H40.085C40.107 31.1684 40.1267 31.1684 40.1443 31.1729C40.3003 31.1729 40.3662 31.3547 40.5375 31.4512C40.5485 31.4557 40.5594 31.4602 40.5726 31.4647C40.6868 31.5095 40.812 31.5163 40.9416 31.4916C41.1195 31.4534 41.2931 31.3547 41.5325 31.2245C41.5522 31.2133 41.572 31.2043 41.5918 31.1953C41.6709 31.1527 41.7455 31.1235 41.8114 31.1011C41.9915 31.0315 42.1629 30.9777 42.2881 30.8789C42.3298 30.8475 42.3671 30.8138 42.4001 30.7779C42.4813 30.6859 42.545 30.5961 42.5868 30.5153C42.7076 30.2685 42.7076 29.7568 42.7076 29.3034C42.7076 29.1396 42.7076 28.9847 42.7142 28.8411C42.6461 28.2396 42.4484 27.7167 42.3254 27.4384C42.2902 27.3576 42.3759 27.2769 42.4506 27.3195C42.5912 27.398 42.7581 27.5282 42.8569 27.7257C42.9075 27.3666 42.9382 27.012 42.8481 26.8819C42.7823 26.7854 42.6197 26.635 42.4506 26.4757C42.1057 26.1525 41.6752 25.753 41.5742 25.3939L41.5786 25.3849Z" fill="white"/>
</g>
<defs>
<clipPath id="clip0_231_2940">
<rect width="121.369" height="37.8519" fill="white" transform="translate(0.0898438)"/>
</clipPath>
</defs>
</svg>
