<svg width="157" height="49" viewBox="0 0 157 49" fill="none" xmlns="http://www.w3.org/2000/svg">
<g clip-path="url(#clip0_31_1982)">
<path d="M145.379 35.4441C145.356 35.3715 145.303 35.3366 145.217 35.3366H144.004C143.924 35.3366 143.873 35.3715 143.851 35.4441L141.742 40.9641C141.7 41.0687 141.734 41.121 141.848 41.121H142.93C143.01 41.121 143.061 41.0861 143.083 41.0135L143.407 40.1128H145.822L146.146 41.0135C146.169 41.0861 146.217 41.121 146.291 41.121H147.391C147.493 41.121 147.527 41.0687 147.496 40.9641L145.379 35.4441ZM143.836 38.9304L144.604 36.7979H144.629L145.396 38.9304H143.836ZM117.921 35.4673V36.4435C117.921 36.5307 117.879 36.5771 117.793 36.5771H116.33V40.9902C116.33 41.0774 116.287 41.1239 116.202 41.1239H115.159C115.074 41.1239 115.032 41.0803 115.032 40.9902V36.5771H113.577C113.486 36.5771 113.441 36.5336 113.441 36.4435V35.4673C113.441 35.3802 113.486 35.3337 113.577 35.3337H117.796C117.881 35.3337 117.924 35.3773 117.924 35.4673H117.921ZM108.661 35.4673V40.9873C108.661 41.0745 108.616 41.121 108.525 41.121H107.482C107.397 41.121 107.355 41.0774 107.355 40.9873V35.4673C107.355 35.3802 107.397 35.3337 107.482 35.3337H108.525C108.616 35.3337 108.661 35.3773 108.661 35.4673ZM109.267 27.0363V31.4377C109.267 31.7748 109 32.0508 108.667 32.0508H106.084C102.493 32.0508 99.5297 30.8945 97.2765 28.6138C95.0206 26.3303 93.8784 23.4076 93.8784 19.93C93.8784 16.4524 95.0092 13.6285 97.2424 11.345C99.4757 9.06148 102.385 7.90519 105.894 7.90519H108.636C108.966 7.90519 109.235 8.17829 109.235 8.5182V12.9197C109.235 13.2567 108.968 13.5327 108.636 13.5327H106.053C104.056 13.5327 102.51 14.1282 101.331 15.3543C100.149 16.5832 99.5723 18.0794 99.5723 19.93C99.5723 21.7807 100.149 23.3466 101.331 24.5901C102.51 25.8248 104.064 26.4262 106.084 26.4262H108.667C108.997 26.4262 109.267 26.6993 109.267 27.0392V27.0363ZM127.403 35.4673V38.7735C127.403 39.555 127.195 40.1593 126.78 40.5864C126.365 41.0135 125.78 41.2255 125.027 41.2255C124.274 41.2255 123.689 41.0135 123.277 40.5864C122.865 40.1593 122.658 39.555 122.658 38.7735V35.4673C122.658 35.3802 122.7 35.3337 122.785 35.3337H123.828C123.919 35.3337 123.965 35.3773 123.965 35.4673V38.6805C123.965 39.1163 124.053 39.4359 124.226 39.6393C124.402 39.8426 124.666 39.9443 125.022 39.9443C125.377 39.9443 125.644 39.8426 125.823 39.6393C126.002 39.4359 126.09 39.1163 126.09 38.6805V35.4673C126.09 35.3802 126.132 35.3337 126.218 35.3337H127.26C127.351 35.3337 127.397 35.3773 127.397 35.4673H127.403ZM115.938 32.0537H111.474C111.145 32.0537 110.875 31.7806 110.875 31.4407V8.5182C110.875 8.18119 111.142 7.90519 111.474 7.90519H115.938C116.268 7.90519 116.537 8.17829 116.537 8.5182V31.4407C116.537 31.7777 116.27 32.0537 115.938 32.0537ZM136.171 39.0553C136.472 38.8955 136.705 38.666 136.867 38.3668C137.029 38.0675 137.108 37.7218 137.108 37.3296C137.108 36.7079 136.915 36.2198 136.526 35.8683C136.137 35.5167 135.597 35.3395 134.901 35.3395H132.687C132.602 35.3395 132.559 35.3831 132.559 35.4731V40.9931C132.559 41.0803 132.602 41.1268 132.687 41.1268H133.73C133.821 41.1268 133.866 41.0832 133.866 40.9931V39.3488H134.182C134.619 39.3488 134.957 39.4737 135.196 39.7206C135.435 39.9676 135.611 40.3946 135.725 41.0018C135.742 41.0832 135.79 41.1268 135.869 41.1268H137.04C137.137 41.1268 137.176 41.0774 137.162 40.9786C137.023 40.0809 136.691 39.4417 136.168 39.0611L136.171 39.0553ZM134.869 38.0966H133.866V36.5684H134.869C135.466 36.5684 135.767 36.8212 135.767 37.3296C135.767 37.838 135.469 38.0966 134.869 38.0966ZM124.925 13.5327V17.3938H131.596C131.926 17.3938 132.196 17.6668 132.196 18.0068V22.2455C132.196 22.5825 131.929 22.8585 131.596 22.8585H124.925V31.4407C124.925 31.7777 124.658 32.0537 124.325 32.0537H119.862C119.532 32.0537 119.262 31.7806 119.262 31.4407V8.5182C119.262 8.18119 119.529 7.90519 119.862 7.90519H132.011C132.341 7.90519 132.611 8.17829 132.611 8.5182V12.9197C132.611 13.2567 132.343 13.5327 132.011 13.5327H124.925ZM147.627 8.5182V12.9197C147.627 13.2567 147.36 13.5327 147.027 13.5327H139.941V17.3938H146.612C146.942 17.3938 147.212 17.6668 147.212 18.0068V22.2455C147.212 22.5825 146.945 22.8585 146.612 22.8585H139.941V26.4262H147.027C147.357 26.4262 147.627 26.6993 147.627 27.0392V31.4407C147.627 31.7777 147.36 32.0537 147.027 32.0537H134.878C134.548 32.0537 134.278 31.7806 134.278 31.4407V8.5182C134.278 8.18119 134.545 7.90519 134.878 7.90519H147.027C147.357 7.90519 147.627 8.17829 147.627 8.5182ZM102.377 40.0286V40.9873C102.377 41.0745 102.334 41.121 102.249 41.121H98.4585C98.3733 41.121 98.3306 41.0774 98.3306 40.9873V35.4673C98.3306 35.3802 98.3733 35.3337 98.4585 35.3337H102.217C102.303 35.3337 102.345 35.3773 102.345 35.4673V36.4261C102.345 36.519 102.303 36.5655 102.217 36.5655H99.6405V37.623H101.652C101.737 37.623 101.78 37.6695 101.78 37.7625V38.6893C101.78 38.7822 101.737 38.8287 101.652 38.8287H99.6405V39.8862H102.252C102.337 39.8862 102.379 39.9327 102.379 40.0257L102.377 40.0286ZM146.084 0H10.9162C4.89551 0 0 5.00575 0 11.162V37.8409C0 43.9942 4.89551 49.0029 10.9162 49.0029H146.084C152.102 49.0029 157 43.9972 157 37.8409V11.162C157 5.00866 152.105 0 146.084 0ZM154.534 37.838C154.534 42.6026 150.744 46.4782 146.084 46.4782H10.9162C6.25647 46.4782 2.46622 42.6026 2.46622 37.838V11.162C2.46622 6.39737 6.25647 2.52176 10.9162 2.52176H146.084C150.744 2.52176 154.534 6.39737 154.534 11.162V37.8409V37.838ZM74.3986 39.0524C74.6998 38.8926 74.9328 38.6631 75.0947 38.3639C75.2567 38.0646 75.3363 37.7189 75.3363 37.3267C75.3363 36.705 75.143 36.2169 74.7538 35.8653C74.3645 35.5138 73.8247 35.3366 73.1286 35.3366H70.9152C70.83 35.3366 70.7874 35.3802 70.7874 35.4702V40.9902C70.7874 41.0774 70.83 41.1239 70.9152 41.1239H71.958C72.0489 41.1239 72.0944 41.0803 72.0944 40.9902V39.3458H72.4097C72.8473 39.3458 73.1854 39.4708 73.4241 39.7177C73.6627 39.9647 73.8389 40.3917 73.9526 40.9989C73.9696 41.0803 74.0179 41.1239 74.0975 41.1239H75.2681C75.3647 41.1239 75.4044 41.0745 75.3902 40.9757C75.251 40.078 74.9186 39.4388 74.3958 39.0582L74.3986 39.0524ZM73.0973 38.0937H72.0944V36.5655H73.0973C73.694 36.5655 73.9952 36.8183 73.9952 37.3267C73.9952 37.8351 73.6968 38.0937 73.0973 38.0937ZM84.4652 40.0286V40.9873C84.4652 41.0745 84.4226 41.121 84.3374 41.121H80.5471C80.4619 41.121 80.4193 41.0774 80.4193 40.9873V35.4673C80.4193 35.3802 80.4619 35.3337 80.5471 35.3337H84.3061C84.3914 35.3337 84.434 35.3773 84.434 35.4673V36.4261C84.434 36.519 84.3914 36.5655 84.3061 36.5655H81.7291V37.623H83.7407C83.826 37.623 83.8686 37.6695 83.8686 37.7625V38.6893C83.8686 38.7822 83.826 38.8287 83.7407 38.8287H81.7291V39.8862H84.3402C84.4255 39.8862 84.4681 39.9327 84.4681 40.0257L84.4652 40.0286ZM77.436 22.0596C78.1605 20.6622 78.527 19.1456 78.527 17.5506C78.527 14.9156 77.5894 12.6233 75.7369 10.7407C73.8844 8.85812 71.5318 7.90519 68.7445 7.90519H62.0164C61.6868 7.90519 61.4169 8.17829 61.4169 8.5182V31.4407C61.4169 31.7777 61.684 32.0537 62.0164 32.0537H66.48C66.8096 32.0537 67.0795 31.7806 67.0795 31.4407V27.228H68.9036C69.1053 27.228 69.3639 27.2164 69.6764 27.1903L70.5999 28.6719C71.4238 29.9822 72.333 30.8857 73.3019 31.3564C74.2622 31.8241 75.663 32.0508 77.578 32.0508C77.9076 32.0508 78.1775 31.7777 78.1775 31.4377V27.0363C78.1775 26.6993 77.9104 26.4233 77.578 26.4233C76.8876 26.4233 76.3392 26.3477 75.9528 26.1996C75.6204 26.0717 75.3135 25.8016 75.0493 25.3948L74.8845 25.1362C75.95 24.3083 76.8052 23.274 77.436 22.0538V22.0596ZM71.7165 20.3281C70.9323 21.0747 70.0003 21.435 68.8724 21.435H67.0795V13.6925H68.8724C70.0003 13.6925 70.9294 14.0585 71.7165 14.8139C72.4893 15.5576 72.8672 16.4641 72.8672 17.5797C72.8672 18.6953 72.4921 19.593 71.7193 20.3252L71.7165 20.3281ZM93.438 35.4673V36.4435C93.438 36.5307 93.3954 36.5771 93.3101 36.5771H90.7558V37.7828H92.9606C93.0459 37.7828 93.0885 37.8264 93.0885 37.9165V38.8839C93.0885 38.9769 93.0459 39.0234 92.9606 39.0234H90.7558V40.9902C90.7558 41.0774 90.7104 41.1239 90.6194 41.1239H89.5767C89.4914 41.1239 89.4488 41.0803 89.4488 40.9902V35.4702C89.4488 35.3831 89.4914 35.3366 89.5767 35.3366H93.3101C93.3954 35.3366 93.438 35.3802 93.438 35.4702V35.4673ZM93.5772 8.5182V12.9197C93.5772 13.2567 93.3101 13.5327 92.9777 13.5327H85.8916V17.3938H92.5629C92.8924 17.3938 93.1624 17.6668 93.1624 18.0068V22.2455C93.1624 22.5825 92.8953 22.8585 92.5629 22.8585H85.8916V26.4262H92.9777C93.3073 26.4262 93.5772 26.6993 93.5772 27.0392V31.4407C93.5772 31.7777 93.3101 32.0537 92.9777 32.0537H80.8284C80.4988 32.0537 80.2289 31.7806 80.2289 31.4407V8.5182C80.2289 8.18119 80.496 7.90519 80.8284 7.90519H92.9777C93.3073 7.90519 93.5772 8.17829 93.5772 8.5182ZM63.7155 35.3366H61.5248C61.4396 35.3366 61.397 35.3802 61.397 35.4702V40.9902C61.397 41.0774 61.4396 41.1239 61.5248 41.1239H62.5676C62.6585 41.1239 62.704 41.0803 62.704 40.9902V39.4127H63.7155C64.4173 39.4127 64.9599 39.2325 65.3435 38.8752C65.7299 38.5178 65.9203 38.0152 65.9203 37.3703C65.9203 36.7253 65.7271 36.2256 65.3435 35.8712C64.9571 35.5167 64.4144 35.3395 63.7155 35.3395V35.3366ZM63.6842 38.1721H62.7068V36.5684H63.6842C64.278 36.5684 64.5735 36.8357 64.5735 37.3703C64.5735 37.9048 64.278 38.1721 63.6842 38.1721ZM31.2113 14.7122C33.1207 14.7122 34.9391 15.1131 36.5955 15.8365L36.0358 17.1962C34.5527 16.5512 32.9246 16.1939 31.2113 16.1939C29.4981 16.1939 27.8672 16.5512 26.384 17.1991L25.8243 15.8394C27.4808 15.116 29.302 14.7151 31.2113 14.7151V14.7122ZM22.8466 9.49437C22.9489 9.44788 23.0512 9.39559 23.1535 9.35201C23.9235 9.015 24.719 8.73029 25.5345 8.49205L25.3214 7.74831C25.1225 7.80642 24.9236 7.86743 24.7276 7.93134L24.8242 8.23058C24.6509 8.28578 24.4804 8.3497 24.3071 8.41071L24.2105 8.10856C24.0002 8.18119 23.7928 8.25963 23.5882 8.33808L23.7019 8.63441C23.5314 8.70123 23.3638 8.76805 23.1961 8.84069L23.0825 8.54725C23.0086 8.57921 22.9347 8.60826 22.8609 8.64022C22.7529 8.68671 22.6478 8.739 22.5426 8.78839C22.5313 8.7942 22.5227 8.79711 22.5114 8.80292L22.8182 9.5118C22.8182 9.5118 22.8381 9.50308 22.8495 9.49727L22.8466 9.49437ZM28.0661 11.2056L27.6654 8.83197C27.0205 8.95109 26.384 9.10506 25.7618 9.28809L26.421 11.6007C26.958 11.4438 27.5063 11.3102 28.0661 11.2056ZM31.2113 10.9092C31.4926 10.9092 31.7711 10.9179 32.0495 10.9325L32.1831 8.52401C31.862 8.50658 31.5381 8.49787 31.2113 8.49787C30.8846 8.49787 30.5522 8.50658 30.2254 8.52401L30.359 10.9325C30.6402 10.9179 30.9244 10.9092 31.2113 10.9092ZM35.0101 7.24861C34.8254 7.21374 34.6408 7.18469 34.4561 7.15564L34.4135 7.46941C34.2345 7.44035 34.0526 7.42292 33.8736 7.39968L33.9191 7.0801C33.7287 7.05396 33.5355 7.03071 33.3423 7.01038L33.3139 7.32995C33.1349 7.31252 32.9502 7.3009 32.7712 7.28638L32.7996 6.96099C32.6263 6.94646 32.4501 6.93484 32.2768 6.92612L32.2342 7.69892C33.1349 7.7454 34.0185 7.8529 34.8851 8.01559L35.013 7.25151L35.0101 7.24861ZM30.18 7.69602L30.1373 6.92322C29.9583 6.93193 29.7793 6.94646 29.6003 6.96099L29.6259 7.28638C29.4441 7.3009 29.2622 7.30962 29.0832 7.32995L29.0577 7.01328C28.8645 7.03362 28.6712 7.05686 28.4809 7.08301L28.5235 7.40259C28.3445 7.42583 28.1627 7.44616 27.9837 7.47231L27.941 7.16145C27.7592 7.1905 27.5774 7.21955 27.3984 7.25442L27.5262 8.0185C28.3928 7.8558 29.2793 7.7454 30.18 7.69892V7.69602ZM39.5647 9.48856C39.5647 9.48856 39.5817 9.49727 39.5902 9.50018L39.8971 8.7913C39.8971 8.7913 39.8801 8.78258 39.8687 8.77967C39.7636 8.73029 39.6613 8.67799 39.5533 8.63441C39.4738 8.59955 39.3942 8.5705 39.3175 8.53563L39.201 8.83488C39.0334 8.76515 38.8629 8.69542 38.6952 8.6286L38.8117 8.32936C38.61 8.25092 38.4054 8.17538 38.2009 8.10275L38.1014 8.4078C37.9309 8.34679 37.7576 8.28578 37.5843 8.22768L37.6838 7.92553C37.4849 7.86162 37.286 7.8006 37.0871 7.73959L36.874 8.48334C37.6894 8.72448 38.4878 9.00628 39.2607 9.34329C39.3629 9.38687 39.4624 9.43917 39.5647 9.48565V9.48856ZM37.2831 14.1544C35.4164 13.338 33.3622 12.8877 31.2085 12.8877C29.0548 12.8877 26.9977 13.3409 25.1282 14.1573L25.7277 15.6157C27.4126 14.8778 29.2651 14.4711 31.2057 14.4711C33.1462 14.4711 34.9959 14.8778 36.6808 15.6128L37.2803 14.1544H37.2831ZM37.9935 13.1405C37.9935 13.1405 38.0077 13.1463 38.0133 13.1492L38.2179 12.6785C38.2179 12.6785 38.2037 12.6727 38.1952 12.6669C38.1099 12.6291 38.0275 12.5856 37.9395 12.5478C35.8682 11.6443 33.5952 11.1446 31.2085 11.1446C28.8218 11.1446 26.5403 11.6472 24.469 12.5507C24.3809 12.5885 24.2957 12.632 24.2105 12.6698C24.2019 12.6727 24.1934 12.6785 24.1849 12.6814L24.3895 13.1521C24.3895 13.1521 24.4065 13.1434 24.4122 13.1405C24.4974 13.1027 24.5798 13.062 24.6622 13.0243C26.6738 12.144 28.8843 11.6588 31.2057 11.6588C33.527 11.6588 35.7318 12.144 37.7434 13.0213C37.8258 13.0591 37.9082 13.0998 37.9906 13.1376L37.9935 13.1405ZM37.3741 13.9307L37.6553 13.248C35.6721 12.3822 33.4957 11.9028 31.2085 11.9028C28.9213 11.9028 26.7392 12.3822 24.756 13.2509L25.0373 13.9336C25.0373 13.9336 25.0401 13.9336 25.0429 13.9336C25.0287 13.675 25.1736 13.4252 25.4208 13.3293C25.6709 13.2305 25.9436 13.3177 26.0999 13.524C26.3641 13.431 26.6284 13.3467 26.8983 13.2683C26.9125 13.0068 27.0858 12.7744 27.3444 12.7076C27.6029 12.6408 27.8643 12.7628 27.995 12.9865C28.2479 12.9313 28.5008 12.8848 28.7593 12.8441C28.7991 12.5797 29.0008 12.3648 29.2736 12.3299C29.5464 12.295 29.7992 12.4577 29.8958 12.7076C30.1373 12.6872 30.3817 12.6727 30.626 12.6611C30.6914 12.3967 30.9244 12.1992 31.2 12.1992C31.4756 12.1992 31.7086 12.3967 31.7739 12.6611C32.0183 12.6698 32.2626 12.6843 32.507 12.7047C32.6064 12.4548 32.8564 12.2921 33.1292 12.327C33.3991 12.3619 33.6008 12.5768 33.6406 12.8383C33.8963 12.879 34.1521 12.9255 34.4049 12.9807C34.5385 12.757 34.797 12.6379 35.0556 12.7047C35.3141 12.7715 35.4874 13.001 35.5017 13.2625C35.7716 13.3409 36.0387 13.4281 36.3029 13.5181C36.462 13.3148 36.7319 13.2276 36.982 13.3264C37.2291 13.4252 37.3712 13.6721 37.3598 13.9278C37.3598 13.9278 37.3627 13.9278 37.3655 13.9278L37.3741 13.9307ZM25.2987 8.80582C24.6509 9.00919 24.0144 9.24161 23.395 9.50599C23.3439 9.52633 23.2927 9.54666 23.2416 9.567L23.3723 9.88658C23.4234 9.86333 23.4746 9.8459 23.5257 9.82557C24.1337 9.567 24.756 9.33748 25.3924 9.13702L25.2987 8.80292V8.80582ZM24.5315 12.2689C25.0486 12.0481 25.5799 11.8534 26.1198 11.682L25.4606 9.36944C24.8327 9.56409 24.219 9.7907 23.6195 10.0464C23.5683 10.0667 23.5172 10.087 23.4689 10.1074L24.3838 12.327C24.4321 12.3067 24.4832 12.2863 24.5344 12.266L24.5315 12.2689ZM30.0493 10.947L29.9157 8.54144C29.2594 8.58502 28.6116 8.66056 27.9723 8.76805L28.3729 11.1416C28.9241 11.0487 29.4839 10.9848 30.0493 10.9441V10.947ZM27.8757 8.18991L27.9325 8.53273C28.5803 8.42233 29.2367 8.34679 29.9015 8.30031L29.8816 7.95458C29.2026 8.00107 28.532 8.07951 27.8728 8.18991H27.8757ZM39.1726 9.56409C39.1214 9.54085 39.0675 9.52342 39.0163 9.50018C38.3969 9.2358 37.7605 9.00338 37.1127 8.80001L37.0189 9.13412C37.6553 9.33167 38.2776 9.56119 38.8856 9.81976C38.9368 9.843 38.9907 9.86043 39.0419 9.88367L39.1726 9.56409ZM38.7918 10.0406C38.1923 9.78489 37.5786 9.55828 36.9507 9.36363L36.2915 11.6762C36.8342 11.8447 37.3627 12.0423 37.8826 12.2602C37.9338 12.2834 37.9878 12.3008 38.0389 12.3241L38.951 10.1045C38.8998 10.0812 38.8458 10.0638 38.7947 10.0406H38.7918ZM32.3592 10.9441C32.9275 10.9819 33.4872 11.0458 34.0384 11.1387L34.439 8.76515C33.7997 8.65765 33.1519 8.58212 32.4956 8.53854L32.3621 10.9441H32.3592ZM34.5328 8.1841C33.8736 8.0737 33.2031 7.99526 32.524 7.94877L32.5041 8.2945C33.169 8.33808 33.8282 8.41361 34.4731 8.52401L34.5299 8.18119L34.5328 8.1841ZM34.3424 11.1939C34.8993 11.2985 35.4477 11.4293 35.9875 11.5862L36.6467 9.27357C36.0244 9.09054 35.388 8.93946 34.7402 8.81744L34.3396 11.191L34.3424 11.1939ZM31.2 22.385C28.3559 22.385 25.8527 23.9015 24.4093 26.188H24.7475C26.1567 24.07 28.5207 22.6784 31.2 22.6784C33.8793 22.6784 36.2432 24.07 37.6525 26.188H37.9906C36.5472 23.9015 34.0441 22.385 31.2 22.385ZM44.3465 14.7703C44.4517 14.8168 45.2302 14.4304 45.8126 14.6715C46.1763 14.8226 46.3241 15.0608 46.4633 15.3717C46.4746 14.8575 46.2161 14.6483 45.949 14.5001C45.5796 14.2968 44.5397 14.5234 44.5056 14.5117C44.4715 14.5001 44.088 13.3206 43.21 14.1399C44.2442 13.6314 44.2442 14.7238 44.3465 14.7703ZM31.4756 26.7138H31.0465V27.4459H30.322V27.8846H31.0465V29.8805H31.4756V27.8846H32.2001V27.4459H31.4756V26.7138ZM31.2 21.6761C27.9581 21.6761 25.1197 23.4948 23.5996 26.188H23.9263C25.418 23.6604 28.12 21.9666 31.2028 21.9666C34.2856 21.9666 36.9848 23.6604 38.4765 26.188H38.8032C37.2803 23.4919 34.4447 21.6761 31.2028 21.6761H31.2ZM23.1336 19.532H39.2663V26.1792C37.7036 23.2478 34.672 21.2577 31.2 21.2577C27.7279 21.2577 24.6963 23.2507 23.1336 26.1792V19.532ZM30.6033 20.2467L30.6658 20.2932L30.7937 20.3891L30.9215 20.4849L30.9727 20.5227L30.9215 20.6796L30.8306 20.9701L30.9215 20.9033L31.0494 20.8074L31.1772 20.7115L31.2 20.6941L31.3079 20.7755L31.4358 20.8713L31.5637 20.9672L31.5693 20.973L31.5637 20.9527L31.4358 20.5489L31.4301 20.5256L31.4358 20.5198L31.5637 20.4239L31.6944 20.3252L31.7966 20.2467H31.3364L31.3079 20.1508L31.2 19.8051L31.1772 19.8748L31.0579 20.2467H30.6033ZM37.1524 26.1909H25.2504C26.6 24.317 28.765 23.0997 31.2 23.0997C33.6349 23.0997 35.8 24.317 37.1496 26.1909H37.1524ZM31.8563 24.6976L31.8961 24.683L31.9955 24.6482L32.0978 24.6133L31.9955 24.5581L31.8961 24.5029L31.8336 24.468L31.8961 24.4041L31.9955 24.2995L32.0779 24.2124H31.7512L31.7938 24.1107L31.8705 23.916L31.7938 23.9393L31.6915 23.9683L31.5921 23.9974L31.5665 24.0032L31.5438 23.6865L31.4898 23.7359L31.3932 23.8202L31.3023 23.8986L31.2881 23.8696L31.1829 23.6517V23.6459L31.0835 23.8289L31.0551 23.8812L30.984 23.8202L30.8818 23.7301L30.7908 23.6488L30.8107 24.0264L30.7823 24.0148L30.68 23.9741L30.5777 23.9335L30.5067 23.9044L30.5777 24.0526L30.6488 24.1979H30.2794L30.3732 24.3199L30.4783 24.4593L30.5039 24.4942L30.4783 24.5087L30.3732 24.5639L30.2766 24.6133L30.2624 24.622L30.2766 24.6278L30.3732 24.6743L30.4783 24.7237L30.5238 24.7469L30.4783 24.7934L30.3732 24.9038L30.2766 25.0055L30.2624 25.02H30.6317L30.5777 25.1333L30.4868 25.3309L30.5777 25.2989L30.68 25.2641L30.7823 25.2292H30.7908L30.8107 25.6069L30.8818 25.5401L30.984 25.4413L31.075 25.3541L31.0835 25.3687L31.1829 25.5488L31.2028 25.5837L31.2881 25.3338L31.3023 25.2931L31.3932 25.3919L31.4898 25.4994L31.5693 25.5866L31.5864 25.1885H31.5921L31.6915 25.235L31.7938 25.2786L31.8307 25.296L31.7938 25.1915L31.7313 25.02H32.0552L31.9955 24.9271L31.8961 24.7673L31.8563 24.7034V24.6976ZM38.593 38.3406C38.4196 38.2273 38.2009 38.0879 37.9082 38.0879C37.6156 38.0879 37.3968 38.2273 37.2235 38.3406C37.0729 38.4394 36.9535 38.5149 36.8058 38.5149C36.6581 38.5149 36.5387 38.4365 36.3881 38.3406C36.2148 38.2273 35.996 38.0879 35.7034 38.0879C35.4107 38.0879 35.192 38.2273 35.0186 38.3406C34.8681 38.4394 34.7487 38.5149 34.601 38.5149C34.4532 38.5149 34.3339 38.4365 34.1833 38.3406C34.01 38.2273 33.7912 38.0879 33.4986 38.0879C33.2059 38.0879 32.9871 38.2273 32.8138 38.3406C32.6632 38.4394 32.5439 38.5149 32.3961 38.5149C32.2484 38.5149 32.1291 38.4365 31.9785 38.3406C31.8052 38.2273 31.5864 38.0879 31.2937 38.0879C31.0011 38.0879 30.7823 38.2273 30.609 38.3406C30.4584 38.4394 30.3391 38.5149 30.1913 38.5149C30.0436 38.5149 29.9242 38.4365 29.7737 38.3406C29.6003 38.2273 29.3816 38.0879 29.0889 38.0879C28.7963 38.0879 28.5775 38.2273 28.4042 38.3406C28.2536 38.4394 28.1342 38.5149 27.9865 38.5149C27.8388 38.5149 27.7194 38.4365 27.5688 38.3406C27.3955 38.2273 27.1767 38.0879 26.8841 38.0879C26.5914 38.0879 26.3727 38.2273 26.1993 38.3406C26.0488 38.4394 25.9294 38.5149 25.7817 38.5149C25.6339 38.5149 25.5146 38.4365 25.364 38.3406C25.1907 38.2273 24.9719 38.0879 24.6793 38.0879C24.3866 38.0879 24.1678 38.2273 23.9945 38.3406C23.8439 38.4394 23.7246 38.5149 23.5769 38.5149C23.4291 38.5149 23.3098 38.4365 23.1592 38.3406C23.1535 38.3377 23.1478 38.3319 23.1421 38.329V38.8403C23.2672 38.9042 23.4064 38.9536 23.5769 38.9536C23.8525 38.9536 24.0542 38.8229 24.2303 38.7096C24.3838 38.6108 24.5145 38.5266 24.6793 38.5266C24.8441 38.5266 24.9748 38.6108 25.1282 38.7096C25.3043 38.8229 25.5061 38.9536 25.7817 38.9536C26.0573 38.9536 26.259 38.8229 26.4352 38.7096C26.5886 38.6108 26.7193 38.5266 26.8841 38.5266C27.0489 38.5266 27.1796 38.6108 27.333 38.7096C27.5092 38.8229 27.7109 38.9536 27.9865 38.9536C28.2621 38.9536 28.4638 38.8229 28.64 38.7096C28.7934 38.6108 28.9241 38.5266 29.0889 38.5266C29.2537 38.5266 29.3844 38.6108 29.5378 38.7096C29.714 38.8229 29.9157 38.9536 30.1913 38.9536C30.4669 38.9536 30.6687 38.8229 30.8448 38.7096C30.9982 38.6108 31.1289 38.5266 31.2937 38.5266C31.4585 38.5266 31.5892 38.6108 31.7427 38.7096C31.9188 38.8229 32.1205 38.9536 32.3961 38.9536C32.6718 38.9536 32.8735 38.8229 33.0496 38.7096C33.2031 38.6108 33.3338 38.5266 33.4986 38.5266C33.6634 38.5266 33.7941 38.6108 33.9475 38.7096C34.1236 38.8229 34.3254 38.9536 34.601 38.9536C34.8766 38.9536 35.0783 38.8229 35.2545 38.7096C35.4079 38.6108 35.5386 38.5266 35.7034 38.5266C35.8682 38.5266 35.9989 38.6108 36.1523 38.7096C36.3285 38.8229 36.5302 38.9536 36.8058 38.9536C37.0814 38.9536 37.2831 38.8229 37.4593 38.7096C37.6127 38.6108 37.7434 38.5266 37.9082 38.5266C38.073 38.5266 38.2037 38.6108 38.3571 38.7096C38.5333 38.8229 38.735 38.9536 39.0106 38.9536C39.1072 38.9536 39.1953 38.9362 39.2749 38.913V38.4365C39.1868 38.4859 39.1044 38.5149 39.0106 38.5149C38.8629 38.5149 38.7435 38.4365 38.593 38.3406ZM38.593 39.1977C38.4196 39.0844 38.2009 38.9449 37.9082 38.9449C37.6156 38.9449 37.3968 39.0844 37.2235 39.1977C37.0729 39.2965 36.9535 39.372 36.8058 39.372C36.6581 39.372 36.5387 39.2935 36.3881 39.1977C36.2148 39.0844 35.996 38.9449 35.7034 38.9449C35.4107 38.9449 35.192 39.0844 35.0186 39.1977C34.8681 39.2965 34.7487 39.372 34.601 39.372C34.4532 39.372 34.3339 39.2935 34.1833 39.1977C34.01 39.0844 33.7912 38.9449 33.4986 38.9449C33.2059 38.9449 32.9871 39.0844 32.8138 39.1977C32.6632 39.2965 32.5439 39.372 32.3961 39.372C32.2484 39.372 32.1291 39.2935 31.9785 39.1977C31.8052 39.0844 31.5864 38.9449 31.2937 38.9449C31.0011 38.9449 30.7823 39.0844 30.609 39.1977C30.4584 39.2965 30.3391 39.372 30.1913 39.372C30.0436 39.372 29.9242 39.2935 29.7737 39.1977C29.6003 39.0844 29.3816 38.9449 29.0889 38.9449C28.7963 38.9449 28.5775 39.0844 28.4042 39.1977C28.2536 39.2965 28.1342 39.372 27.9865 39.372C27.8388 39.372 27.7194 39.2935 27.5688 39.1977C27.3955 39.0844 27.1767 38.9449 26.8841 38.9449C26.5914 38.9449 26.3727 39.0844 26.1993 39.1977C26.0488 39.2965 25.9294 39.372 25.7817 39.372C25.6339 39.372 25.5146 39.2935 25.364 39.1977C25.1907 39.0844 24.9719 38.9449 24.6793 38.9449C24.3866 38.9449 24.1678 39.0844 23.9945 39.1977C23.8439 39.2965 23.7246 39.372 23.5769 39.372C23.4291 39.372 23.3098 39.2935 23.1592 39.1977C23.1592 39.1977 23.1563 39.1977 23.1535 39.1948C23.1649 39.3255 23.1848 39.4446 23.2132 39.5521C23.2331 39.6247 23.2558 39.6916 23.2842 39.7555C23.3723 39.7874 23.4689 39.8078 23.5769 39.8078C23.8525 39.8078 24.0542 39.677 24.2332 39.5637C24.3866 39.465 24.5173 39.3807 24.6821 39.3807C24.8469 39.3807 24.9776 39.465 25.131 39.5637C25.3072 39.6799 25.5089 39.8078 25.7845 39.8078C26.0601 39.8078 26.2618 39.677 26.4408 39.5637C26.5943 39.465 26.725 39.3807 26.8898 39.3807C27.0546 39.3807 27.1853 39.465 27.3387 39.5637C27.5149 39.6799 27.7166 39.8078 27.9922 39.8078C28.2678 39.8078 28.4695 39.677 28.6485 39.5637C28.8019 39.465 28.9326 39.3807 29.0974 39.3807C29.2622 39.3807 29.3929 39.465 29.5464 39.5637C29.7225 39.6799 29.9242 39.8078 30.1999 39.8078C30.4755 39.8078 30.6772 39.677 30.8562 39.5637C31.0096 39.465 31.1403 39.3807 31.3051 39.3807C31.4699 39.3807 31.6006 39.465 31.754 39.5637C31.9302 39.6799 32.1319 39.8078 32.4075 39.8078C32.6831 39.8078 32.8848 39.677 33.0639 39.5637C33.2173 39.465 33.348 39.3807 33.5128 39.3807C33.6776 39.3807 33.8083 39.465 33.9617 39.5637C34.1378 39.6799 34.3396 39.8078 34.6152 39.8078C34.8908 39.8078 35.0925 39.677 35.2715 39.5637C35.4249 39.465 35.5556 39.3807 35.7204 39.3807C35.8852 39.3807 36.0159 39.465 36.1694 39.5637C36.3455 39.6799 36.5472 39.8078 36.8228 39.8078C37.0985 39.8078 37.3002 39.677 37.4792 39.5637C37.6326 39.465 37.7633 39.3807 37.9281 39.3807C38.0929 39.3807 38.2236 39.465 38.377 39.5637C38.5532 39.6799 38.7549 39.8078 39.0305 39.8078C39.0646 39.8078 39.0987 39.8078 39.1328 39.802C39.1669 39.7235 39.1982 39.6422 39.2237 39.5521C39.2436 39.4737 39.2607 39.3923 39.272 39.3052C39.1925 39.3458 39.1186 39.372 39.0305 39.372C38.8828 39.372 38.7634 39.2935 38.6128 39.1977H38.593ZM15.948 18.5965C16.5703 18.8929 16.9311 18.9916 17.4255 19.5117C17.8773 19.9881 18.5222 20.116 19.0052 19.6511C19.4883 19.1863 19.6303 19.0497 19.6303 19.0497C19.6303 19.0497 20.0622 19.195 20.4685 19.0091C20.6617 19.3839 20.7185 20.5779 18.7183 20.1973C19.4797 20.9004 21.2925 20.6941 20.8748 18.5994C21.0481 18.4048 21.0225 17.9806 20.9828 17.5158C20.9146 16.743 21.1049 16.5948 21.1021 16.1794C21.0936 15.7581 21.0055 15.485 20.5793 15.0405C20.1531 14.596 19.8491 14.4507 19.6701 14.4362C19.619 14.4362 19.5195 14.4972 19.5195 14.4972C19.5195 14.4972 20.2355 14.8487 20.4657 15.2962C20.7015 15.7407 20.5708 16.3798 20.4941 16.7749C20.4145 17.173 20.5111 17.51 20.6305 17.7627C20.7555 18.0184 20.8805 18.3351 20.6219 18.6169C20.3662 18.9016 19.7184 18.7244 19.7184 18.7244C19.7184 18.7244 19.5394 18.46 19.6559 18.1317C19.7752 17.8121 19.9741 17.661 19.9656 17.478C19.9542 17.2979 19.7497 17.1759 19.5394 16.9551C19.3263 16.7372 19.1331 16.2781 19.2354 16.0631C19.3348 15.8423 19.4826 15.6709 19.7355 15.5867C19.9855 15.5024 20.0537 15.3688 19.9457 15.1829C19.8377 14.9882 19.5479 15.0085 19.3519 15.1974C19.1615 15.3862 18.8632 15.8075 18.9626 16.3101C19.0678 16.8127 19.3746 17.173 19.5479 17.3938C19.7269 17.6087 19.4939 17.8993 19.0933 17.9893C18.6927 18.0881 18.4455 18.0532 18.3972 17.998C18.3518 17.9428 18.3603 17.5913 18.2949 17.1933C18.2267 16.7953 17.6358 16.3856 17.1527 16.3972C16.6697 16.4031 16.3771 16.5164 16.4822 16.8708C16.7578 17.3269 17.3062 16.7866 17.3062 16.7866C17.3062 16.7866 17.775 17.0335 17.9398 17.4199C18.0989 17.8121 18.0449 18.2101 18.2779 18.2769C18.5052 18.3409 19.0393 18.1665 19.1757 18.3496C19.3235 18.5326 19.3689 18.8086 19.3689 18.8086C19.3689 18.8086 18.6217 19.9358 17.8687 19.5001C17.559 19.3199 17.1471 18.9045 16.6782 18.5965C16.2123 18.2944 15.681 18.1985 15.681 17.3821C15.681 16.5658 15.7264 16.345 15.8372 15.8336C15.9509 15.3223 15.9509 14.7616 16.6044 14.6773C17.2635 14.5931 17.9256 14.7093 18.0364 14.6599C18.1472 14.6105 18.1472 13.4571 19.2411 13.9946C18.312 13.1288 17.9085 14.3752 17.8716 14.3897C17.8346 14.4013 16.6214 14.1747 16.2322 14.3897C15.8429 14.6047 15.7349 14.8342 15.4622 16.1648C15.2036 17.4228 15.323 18.3031 15.9424 18.5965H15.948ZM20.71 21.9753C21.0282 22.7568 21.193 23.3553 21.193 23.3553C20.4515 22.3908 19.7269 22.1932 19.3945 21.7923C19.3292 22.4634 19.4371 22.9312 19.4371 22.9312C19.4371 22.9312 18.6529 22.4896 18.2267 21.4466C18.1955 22.1526 18.5137 23.3088 20.2242 23.7301C19.7951 23.1403 19.7781 22.6581 19.7781 22.6581C19.7781 22.6581 20.6816 23.2246 21.676 24.5145C21.7329 23.2914 21.5311 22.5971 20.71 21.9782V21.9753ZM38.5901 37.4894C38.4168 37.3761 38.198 37.2366 37.9054 37.2366C37.6127 37.2366 37.3939 37.3761 37.2206 37.4894C37.07 37.5882 36.9507 37.6637 36.803 37.6637C36.6552 37.6637 36.5359 37.5853 36.3853 37.4894C36.212 37.3761 35.9932 37.2366 35.7005 37.2366C35.4079 37.2366 35.1891 37.3761 35.0158 37.4923C34.8652 37.5911 34.7459 37.6666 34.5981 37.6666C34.4504 37.6666 34.3311 37.5882 34.1805 37.4923C34.0071 37.379 33.7884 37.2395 33.4957 37.2395C33.2031 37.2395 32.9843 37.379 32.811 37.4923C32.6604 37.5911 32.5411 37.6666 32.3933 37.6666C32.2456 37.6666 32.1262 37.5882 31.9756 37.4923C31.8023 37.379 31.5835 37.2395 31.2909 37.2395C30.9982 37.2395 30.7795 37.379 30.6062 37.4923C30.4556 37.5911 30.3362 37.6666 30.1885 37.6666C30.0407 37.6666 29.9214 37.5882 29.7708 37.4923C29.5975 37.379 29.3787 37.2395 29.0861 37.2395C28.7934 37.2395 28.5746 37.379 28.4013 37.4923C28.2507 37.5911 28.1314 37.6666 27.9837 37.6666C27.8359 37.6666 27.7166 37.5882 27.566 37.4923C27.3927 37.379 27.1739 37.2395 26.8812 37.2395C26.5886 37.2395 26.3698 37.379 26.1965 37.4923C26.0459 37.5911 25.9266 37.6666 25.7788 37.6666C25.6311 37.6666 25.5118 37.5882 25.3612 37.4923C25.1879 37.379 24.9691 37.2395 24.6764 37.2395C24.3838 37.2395 24.165 37.379 23.9917 37.4923C23.8411 37.5911 23.7218 37.6666 23.574 37.6666C23.4263 37.6666 23.3069 37.5882 23.1563 37.4923C23.1507 37.4894 23.145 37.4836 23.1393 37.4807V37.992C23.2643 38.0559 23.4035 38.1053 23.574 38.1053C23.8496 38.1053 24.0513 37.9746 24.2303 37.8613C24.3838 37.7625 24.5145 37.6782 24.6793 37.6782C24.8441 37.6782 24.9748 37.7625 25.1282 37.8613C25.3043 37.9775 25.5061 38.1053 25.7817 38.1053C26.0573 38.1053 26.259 37.9746 26.438 37.8613C26.5914 37.7625 26.7221 37.6782 26.8869 37.6782C27.0517 37.6782 27.1824 37.7625 27.3358 37.8613C27.512 37.9775 27.7137 38.1053 27.9893 38.1053C28.2649 38.1053 28.4667 37.9746 28.6457 37.8613C28.7991 37.7625 28.9298 37.6782 29.0946 37.6782C29.2594 37.6782 29.3901 37.7625 29.5435 37.8613C29.7197 37.9775 29.9214 38.1053 30.197 38.1053C30.4726 38.1053 30.6743 37.9746 30.8533 37.8613C31.0068 37.7625 31.1375 37.6782 31.3023 37.6782C31.4671 37.6782 31.5978 37.7625 31.7512 37.8613C31.9273 37.9775 32.1291 38.1053 32.4047 38.1053C32.6803 38.1053 32.882 37.9746 33.061 37.8613C33.2144 37.7625 33.3451 37.6782 33.5099 37.6782C33.6747 37.6782 33.8054 37.7625 33.9588 37.8613C34.135 37.9775 34.3367 38.1053 34.6123 38.1053C34.8879 38.1053 35.0897 37.9746 35.2687 37.8613C35.4221 37.7625 35.5528 37.6782 35.7176 37.6782C35.8824 37.6782 36.0131 37.7625 36.1665 37.8613C36.3427 37.9775 36.5444 38.1053 36.82 38.1053C37.0956 38.1053 37.2973 37.9746 37.4763 37.8613C37.6298 37.7625 37.7605 37.6782 37.9253 37.6782C38.0901 37.6782 38.2208 37.7625 38.3742 37.8613C38.5503 37.9775 38.7521 38.1053 39.0277 38.1053C39.1243 38.1053 39.2124 38.0879 39.2919 38.0646V37.5882C39.2038 37.6376 39.1214 37.6695 39.0277 37.6695C38.8799 37.6695 38.7606 37.5911 38.61 37.4952L38.5901 37.4894ZM37.9054 39.8078C37.6127 39.8078 37.3939 39.9472 37.2206 40.0605C37.07 40.1593 36.9507 40.2349 36.803 40.2349C36.6552 40.2349 36.5359 40.1564 36.3853 40.0605C36.212 39.9472 35.9932 39.8078 35.7005 39.8078C35.4079 39.8078 35.1891 39.9472 35.0158 40.0605C34.8652 40.1593 34.7459 40.2349 34.5981 40.2349C34.4504 40.2349 34.3311 40.1564 34.1805 40.0605C34.0071 39.9472 33.7884 39.8078 33.4957 39.8078C33.2031 39.8078 32.9843 39.9472 32.811 40.0605C32.6604 40.1593 32.5411 40.2349 32.3933 40.2349C32.2456 40.2349 32.1262 40.1564 31.9756 40.0605C31.8023 39.9472 31.5835 39.8078 31.2909 39.8078C30.9982 39.8078 30.7795 39.9472 30.6062 40.0605C30.4556 40.1593 30.3362 40.2349 30.1885 40.2349C30.0407 40.2349 29.9214 40.1564 29.7708 40.0605C29.5975 39.9472 29.3787 39.8078 29.0861 39.8078C28.7934 39.8078 28.5746 39.9472 28.4013 40.0605C28.2507 40.1593 28.1314 40.2349 27.9837 40.2349C27.8359 40.2349 27.7166 40.1564 27.566 40.0605C27.3927 39.9472 27.1739 39.8078 26.8812 39.8078C26.5886 39.8078 26.3698 39.9472 26.1965 40.0605C26.0459 40.1593 25.9266 40.2349 25.7788 40.2349C25.6311 40.2349 25.5118 40.1564 25.3612 40.0605C25.1879 39.9472 24.9691 39.8078 24.6764 39.8078C24.3838 39.8078 24.165 39.9472 23.9917 40.0605C23.8468 40.1535 23.7331 40.2261 23.5939 40.2349C23.7331 40.3714 23.8951 40.4644 24.0627 40.5312C24.1195 40.4992 24.1764 40.4644 24.2275 40.4295C24.3809 40.3307 24.5116 40.2465 24.6764 40.2465C24.8412 40.2465 24.9719 40.3307 25.1253 40.4295C25.2901 40.537 25.4748 40.6532 25.722 40.6706H25.8357C26.0828 40.6532 26.2675 40.537 26.4323 40.4295C26.5858 40.3307 26.7165 40.2465 26.8812 40.2465C27.046 40.2465 27.1767 40.3307 27.3302 40.4295C27.495 40.537 27.6796 40.6532 27.9268 40.6706H28.0405C28.2877 40.6532 28.4724 40.537 28.6372 40.4295C28.7906 40.3307 28.9213 40.2465 29.0861 40.2465C29.2509 40.2465 29.3816 40.3307 29.535 40.4295C29.6998 40.537 29.8845 40.6532 30.1317 40.6706H30.2453C30.4925 40.6532 30.6772 40.537 30.842 40.4295C30.9954 40.3307 31.1261 40.2465 31.2909 40.2465C31.4557 40.2465 31.5864 40.3307 31.7398 40.4295C31.9046 40.537 32.0893 40.6532 32.3365 40.6706H32.4501C32.6973 40.6532 32.882 40.537 33.0468 40.4295C33.2002 40.3307 33.3309 40.2465 33.4957 40.2465C33.6605 40.2465 33.7912 40.3307 33.9446 40.4295C34.1094 40.537 34.2941 40.6532 34.5413 40.6706H34.655C34.9021 40.6532 35.0868 40.537 35.2516 40.4295C35.4051 40.3307 35.5358 40.2465 35.7005 40.2465C35.8653 40.2465 35.996 40.3307 36.1495 40.4295C36.3143 40.537 36.4989 40.6532 36.7461 40.6706H36.8598C37.107 40.6532 37.2917 40.537 37.4565 40.4295C37.6099 40.3307 37.7406 40.2465 37.9054 40.2465C38.0702 40.2465 38.2009 40.3307 38.3543 40.4295C38.3827 40.4498 38.414 40.4673 38.4452 40.4876C38.5901 40.4208 38.7265 40.3278 38.8458 40.2029C38.7634 40.1709 38.6839 40.1186 38.5901 40.0605C38.4168 39.9472 38.198 39.8078 37.9054 39.8078ZM51.1656 20.36C51.1656 21.4843 52.2225 22.4983 53.3391 23.5703C54.6291 24.808 55.9616 26.0863 55.9616 27.751C55.9616 28.5296 55.6178 29.2094 54.9672 29.712C54.6035 29.9938 54.2427 30.1478 54.0779 30.2088C54.0779 30.6737 54.0296 31.0949 53.9813 31.4784C53.9188 31.9868 53.8676 32.4255 53.9671 32.7742C54.075 33.1547 54.595 33.6428 55.0155 34.0321C55.257 34.2587 55.4673 34.4563 55.5724 34.6074C55.7968 34.9328 55.686 35.63 55.5667 36.368C55.5212 36.6585 55.4758 36.9345 55.4616 37.1553C55.4474 37.379 55.4474 37.6405 55.4445 37.9223C55.4445 38.573 55.4445 39.2442 55.257 39.6277C55.0041 40.1448 54.1944 40.8072 53.5437 41.0425C53.4784 41.0716 53.4102 41.0977 53.3363 41.121C53.3107 41.1297 53.2852 41.1384 53.2596 41.1471C53.2425 41.1558 53.2227 41.1645 53.2056 41.1732C53.2056 41.1732 53.2056 41.1703 53.2056 41.1674V41.1732C53.18 41.1849 53.1545 41.1936 53.1289 41.2023C53.0806 41.2197 53.0294 41.2401 52.9811 41.2546C52.9811 41.2546 52.9811 41.2488 52.9811 41.243V41.2546C52.9158 41.2749 52.8476 41.2895 52.7823 41.304C52.7737 41.304 52.7624 41.3069 52.7538 41.3098C52.5748 41.3534 52.3845 41.3708 52.1487 41.3505C52.0918 41.3476 52.0378 41.3418 51.981 41.3359V41.3301V41.3359C51.927 41.3301 51.8759 41.3214 51.8219 41.3127V41.304V41.3127C51.8191 41.3127 51.8162 41.3127 51.8105 41.3127C51.7338 41.2982 51.6571 41.2778 51.5804 41.2575C51.5804 41.2575 51.5804 41.2575 51.5804 41.2517V41.2575C51.5491 41.2488 51.5207 41.2372 51.4923 41.2284C51.4753 41.2226 51.4582 41.2197 51.4412 41.2139C50.7962 41.0309 50.5689 40.813 50.4893 40.5806C50.3416 40.2058 50.4837 39.6829 50.7138 39.433C51.0633 39.0524 52.9982 38.8636 53.3278 38.0675C53.6602 37.2686 53.3278 36.0135 53.3278 36.0135C53.3278 36.0135 52.9982 35.8247 51.4724 35.0286C50.4751 34.5057 49.8302 33.6748 49.4523 32.7015C49.1909 32.809 48.6624 33.0473 48.1737 33.4133C47.489 33.9246 47.1736 34.6684 47.1565 35.2349C47.1367 35.8072 47.3213 36.1849 47.1367 36.8502C46.9548 37.5184 46.2104 37.7218 45.7103 38.2912C45.2898 38.7677 44.5681 39.6683 44.4914 39.7729C44.4147 39.8775 44.3068 40.014 44.1249 40.168C43.9971 40.2755 41.994 40.6009 40.9995 40.4382C40.5847 40.3714 40.8944 39.7293 41.2098 39.2064C41.8888 38.0792 43.6163 37.5911 44.5085 36.4725C45.3921 35.3511 44.5426 34.2152 44.5426 32.8468C44.5426 31.4784 45.7132 30.5575 45.7132 30.5575C44.8125 29.7905 43.7357 29.6743 42.5878 28.6836C41.0478 29.9386 41.2638 31.705 41.0393 32.6144C40.9114 33.1431 40.5307 33.5673 40.0193 33.791C40.0079 33.7968 39.9937 33.7997 39.9823 33.8055V35.5632H39.988V38.8287C39.988 39.0815 39.9681 39.3023 39.9369 39.5085C39.8488 40.0954 39.6414 40.5021 39.3743 40.7781C39.309 40.845 39.2408 40.9089 39.1669 40.9612C38.681 41.3214 38.0673 41.3766 37.5729 41.3766H24.8355C24.3525 41.3766 23.7559 41.3243 23.2785 40.9844C23.1734 40.9089 23.0739 40.8159 22.9802 40.7113C22.7387 40.4324 22.5568 40.0402 22.4773 39.4853C22.4489 39.2848 22.429 39.0698 22.429 38.8258V35.5603V33.8171C22.4176 33.8113 22.4062 33.8084 22.3977 33.8055C21.8863 33.5818 21.5027 33.1577 21.3777 32.6289C21.1532 31.7196 21.2839 31.1646 20.9146 30.5052C20.6901 30.0171 20.3009 29.6772 19.9485 29.4506C19.7269 29.6568 19.2865 29.9706 18.4711 30.2582C17.076 30.755 16.8715 30.7724 16.8715 30.7724C16.8715 30.7724 17.8744 31.49 17.8744 32.8613C17.8744 34.2326 17.0249 35.3627 17.9085 36.4871C18.8007 37.6056 20.531 38.0937 21.2072 39.2209C21.5226 39.7468 21.8323 40.3859 21.4175 40.4527C20.423 40.6154 18.4228 40.2871 18.2921 40.1826C18.1102 40.0286 18.0023 39.892 17.9256 39.7874C17.8489 39.6829 17.1272 38.7851 16.7067 38.3058C16.2066 37.7363 15.4622 37.5301 15.2803 36.8648C15.0957 36.1995 15.2803 35.8218 15.2605 35.2494C15.2434 34.6829 14.928 33.9392 14.2433 33.4278C13.7546 33.0618 13.2261 32.8236 12.9647 32.7161C12.5868 33.6864 11.9419 34.5202 10.9446 35.0432C9.41881 35.8392 9.08922 36.028 9.08922 36.028C9.08922 36.028 8.75679 37.2831 9.08922 38.0821C9.41881 38.8781 11.3509 39.0669 11.7032 39.4475C11.9333 39.6974 12.0754 40.2203 11.9276 40.5951C11.8481 40.8275 11.6208 41.0454 10.9758 41.2284C10.9588 41.2343 10.9417 41.2372 10.9247 41.243C10.8963 41.2517 10.865 41.2633 10.8366 41.272V41.2662V41.272C10.7599 41.2953 10.686 41.3127 10.6065 41.3272C10.6036 41.3272 10.6008 41.3272 10.5951 41.3272V41.3185V41.3272C10.544 41.3359 10.49 41.3447 10.436 41.3505V41.3447V41.3505C10.3792 41.3563 10.3252 41.3621 10.2683 41.365C10.0325 41.3853 9.84216 41.365 9.66316 41.3243C9.65463 41.3243 9.64327 41.3243 9.63474 41.3185C9.56939 41.304 9.5012 41.2895 9.43585 41.2691V41.2575V41.2691C9.38471 41.2546 9.33641 41.2372 9.28811 41.2168C9.26254 41.2081 9.23697 41.1994 9.21139 41.1878V41.182V41.1878C9.1915 41.1791 9.17446 41.1703 9.15741 41.1616C9.13184 41.1529 9.10627 41.1442 9.0807 41.1355C9.00966 41.1122 8.94147 41.0832 8.87328 41.057C8.22263 40.8217 7.41287 40.1593 7.16 39.6422C6.97247 39.2587 6.97247 38.5847 6.97247 37.9368C6.97247 37.6579 6.97247 37.3935 6.95543 37.1727C6.94122 36.9548 6.89576 36.6788 6.8503 36.3854C6.73097 35.6475 6.62016 34.9502 6.84462 34.6248C6.94974 34.4737 7.16 34.2762 7.40151 34.0496C7.81917 33.6574 8.34197 33.1722 8.44993 32.7916C8.54938 32.443 8.49539 32.0014 8.43573 31.4929C8.39027 31.1095 8.33912 30.6882 8.33912 30.2233C8.17433 30.1623 7.81065 30.0084 7.44981 29.7266C6.79916 29.221 6.45536 28.5441 6.45536 27.7655C6.45536 26.1008 7.78792 24.8225 9.07786 23.5848C10.1973 22.5099 11.2514 21.496 11.2514 20.3745C11.2514 19.7528 11.0724 19.3403 10.7372 19.1863C10.6434 19.1427 10.5354 19.1195 10.4246 19.1195C10.2939 19.1369 10.1178 19.195 9.94728 19.3635C9.71714 19.5901 9.47279 20.3426 9.35062 20.9207C9.23981 21.4408 8.68292 22.9864 6.36728 21.8591C8.80793 22.1671 7.65154 18.9132 10.2399 18.826C10.4587 18.797 10.6746 18.8202 10.8593 18.9074C11.1747 19.0527 11.5498 19.4274 11.5498 20.3745C11.5498 21.6296 10.4473 22.6871 9.27958 23.8085C8.03795 25.0026 6.7537 26.2344 6.7537 27.7655C6.7537 28.4511 7.04635 29.0264 7.62313 29.4767C7.89873 29.6917 8.17717 29.8253 8.35049 29.898C8.35617 29.7847 8.3647 29.6655 8.3789 29.5464C8.39027 29.4447 8.41016 29.346 8.43289 29.2501C7.75098 29.0612 7.37309 28.5586 7.36741 27.8091C7.35605 26.3332 8.4613 25.2641 9.52962 24.2298C10.6462 23.152 11.7998 22.0334 11.7998 20.4239C11.7998 19.4071 11.4389 18.765 10.7599 18.5646C10.0581 18.3583 9.13184 18.6808 8.68576 19.1282C8.68008 19.134 8.67155 19.1427 8.66587 19.1485C8.64314 19.1718 8.62325 19.1921 8.6062 19.2153C8.59768 19.2241 8.592 19.2328 8.58347 19.2415C8.56074 19.2705 8.53801 19.3025 8.52097 19.3316C7.96692 20.1334 7.84474 21.6906 6.69403 21.4175C7.80781 20.758 7.08897 20.3077 8.44141 18.9452C8.45562 18.9277 8.47266 18.9132 8.48971 18.8958C8.49824 18.8871 8.50676 18.8783 8.51812 18.8667C9.04944 18.367 10.0354 18.0271 10.8451 18.2653C11.939 18.5878 12.101 19.7528 12.101 20.421C12.101 22.1642 10.8991 23.3263 9.73703 24.4506C8.66871 25.4849 7.65722 26.461 7.66859 27.8033C7.67427 28.4163 7.96124 28.8027 8.52097 28.9538C8.85055 28.0647 9.65747 27.5273 10.6377 26.8794C10.8707 26.7254 11.1094 26.5656 11.3594 26.3942C12.4959 25.604 13.0613 24.5029 13.2659 24.0264C12.9363 22.536 13.0727 21.1851 13.6154 20.0985C14.1126 19.102 13.6523 17.7743 14.0813 16.7372C13.8626 16.7604 13.4079 16.7197 13.3426 16.0079C13.2602 15.0725 14.2689 14.9824 14.6411 14.8807C14.749 14.7587 14.9706 14.5669 15.2718 14.352L14.9394 13.7128C14.6126 13.2625 14.1353 13.4804 13.7972 12.8761C13.3142 12.0103 14.2887 11.56 14.6979 11.4118C14.9508 11.1562 15.3343 10.9673 15.573 10.8656C15.4395 10.8017 15.3343 10.6739 15.3116 10.5054C15.2832 10.3195 15.3713 10.1277 15.5304 10.0318C15.7889 9.87786 16.1072 10.0057 16.2009 10.2788C16.2435 10.4037 16.2322 10.5344 16.1782 10.6448C16.4282 10.5693 16.8402 10.4705 17.1954 10.5054C17.6045 10.3543 18.6387 10.0812 18.7922 11.0632C18.9001 11.7488 18.3944 11.8883 18.4171 12.4461L18.5052 12.9284C18.7069 12.9051 18.9058 12.8993 19.0962 12.9139C19.2496 12.9255 19.3746 12.9545 19.6104 13.0417C19.8377 13.1259 20.1474 12.8935 20.4259 12.7744C20.7043 12.6582 20.872 12.6437 21.0027 13.2886C21.1362 13.9365 20.6844 14.3897 20.6844 14.3897L21.0993 14.9446C21.5169 15.5024 22.3068 15.9527 22.5881 16.865C22.7699 17.4548 22.9575 18.1985 22.9773 18.8348H23.4348C23.3524 18.7418 23.3069 18.6343 23.3069 18.5181V18.3292V17.9457C23.3069 17.3037 23.8155 16.7807 24.4406 16.7807H25.1538C25.7788 16.7807 26.2874 17.3037 26.2874 17.9457V18.3263V18.5181C26.2874 18.6343 26.242 18.7418 26.1596 18.8348H36.2574C36.175 18.7418 36.1296 18.6343 36.1296 18.5181V18.3292V17.9457C36.1296 17.3037 36.6382 16.7807 37.2632 16.7807H37.9764C38.6015 16.7807 39.1101 17.3037 39.1101 17.9457V18.3263V18.5181C39.1101 18.6343 39.0646 18.7418 38.9822 18.8348H39.9795V21.2345C40.3403 21.3333 41.3689 21.4204 41.9883 21.2955C42.3207 20.5634 42.656 20.0027 42.656 20.0027C42.656 20.0027 41.5109 19.8777 41.6814 18.4919C41.5166 18.306 41.5422 17.908 41.5791 17.4664C41.6445 16.7372 41.4626 16.5948 41.4655 16.2055C41.474 15.8569 41.5365 15.6157 41.8235 15.2787C41.8718 15.116 41.9627 14.8313 42.0991 14.564C42.2042 14.352 42.4088 14.1282 42.5821 13.9597V13.9568C42.5821 13.9568 42.3434 13.431 42.656 12.9284C42.9657 12.4287 43.1021 12.4984 43.3009 12.6843C43.4544 12.8296 43.693 13.0417 43.8749 13.1317L44.0027 12.4374C44.0255 11.8767 43.5197 11.7372 43.6277 11.0545C43.784 10.0725 44.8153 10.3456 45.2245 10.4967C45.5796 10.4618 45.9916 10.5606 46.2417 10.6361C46.1877 10.5257 46.1763 10.395 46.2189 10.2701C46.3127 9.99407 46.6309 9.86624 46.8895 10.0231C47.0486 10.119 47.1367 10.3078 47.1082 10.4967C47.0827 10.6652 46.9775 10.793 46.8468 10.8569C47.0855 10.9586 47.4691 11.1475 47.722 11.4031C48.1339 11.5484 49.1057 12.0016 48.6226 12.8674C48.2874 13.4688 47.8072 13.2538 47.4804 13.7041L47.327 14.0004C47.7362 14.0701 48.7761 14.2997 48.6653 15.0928C48.5857 15.6709 48.0004 15.578 47.7106 15.7813C47.6623 16.7139 47.5174 17.0161 47.3526 17.478C47.1793 17.9632 46.7161 18.3699 46.4519 18.7011C46.1962 19.0236 46.1365 19.3316 46.0911 19.6366C45.9973 20.3891 46.7815 21.0398 47.2929 21.5018C48.3271 22.4373 48.7874 23.7882 49.2619 24.6627C49.6455 25.2002 50.2166 25.8509 51.0576 26.3855C51.1911 26.4698 51.3218 26.5511 51.4497 26.6325C52.6459 27.382 53.5579 27.9573 53.9074 28.9479C54.4671 28.7969 54.7513 28.4134 54.7569 27.8004C54.7683 26.4581 53.7597 25.482 52.6885 24.4477C51.5264 23.3234 50.3246 22.1613 50.3246 20.4181C50.3246 19.7528 50.4865 18.5849 51.5804 18.2624C52.3902 18.0242 53.3732 18.3641 53.9046 18.8638C53.9159 18.8725 53.9244 18.8812 53.9358 18.8929C53.9529 18.9103 53.9699 18.9248 53.9841 18.9422C55.3394 20.3048 54.6206 20.7551 55.7343 21.4146C54.5808 21.6877 54.4614 20.1305 53.9074 19.3286C53.8875 19.2996 53.8648 19.2705 53.842 19.2386C53.8335 19.2299 53.8278 19.2212 53.8193 19.2124C53.7994 19.1892 53.7795 19.166 53.7597 19.1456C53.754 19.1398 53.7454 19.1311 53.7398 19.1253C53.2908 18.6779 52.3674 18.3525 51.6656 18.5617C50.9837 18.7621 50.6257 19.4071 50.6257 20.421C50.6257 22.0334 51.7793 23.1491 52.8959 24.2269C53.9642 25.2612 55.0695 26.3303 55.0581 27.8062C55.0524 28.5528 54.6745 29.0554 53.9955 29.2443C54.0182 29.3402 54.0353 29.436 54.0466 29.5406C54.0608 29.6597 54.0694 29.7759 54.075 29.8921C54.2455 29.8224 54.5268 29.6859 54.8024 29.4709C55.3792 29.0206 55.6718 28.4453 55.6718 27.7597C55.6718 26.2286 54.3876 24.9968 53.1459 23.8027C51.9782 22.6813 50.8758 21.6238 50.8758 20.3687C50.8758 19.4187 51.2508 19.0468 51.5662 18.9016C51.7509 18.8144 51.9668 18.7912 52.1884 18.8202C54.7768 18.9074 53.6204 22.1584 56.0611 21.8533C53.7454 22.9806 53.1886 21.435 53.0777 20.9149C52.9556 20.3368 52.7112 19.5843 52.4811 19.3577C52.3106 19.1892 52.1344 19.1311 52.0037 19.1137C51.8929 19.1137 51.785 19.1369 51.6912 19.1805C51.3559 19.3374 51.1769 19.747 51.1769 20.3687L51.1656 20.36ZM46.9236 13.1085C46.952 13.1259 46.9804 13.1463 47.006 13.1637C47.094 13.2247 47.1935 13.2944 47.2503 13.3496C47.3838 13.3525 47.5486 13.2596 47.722 13.184C47.9521 13.0475 48.1709 12.9545 48.2732 12.6349C48.4039 12.2224 48.1481 11.929 47.9493 11.7721C47.9663 11.8331 47.9748 11.8941 47.972 11.958C47.9351 12.6611 47.2503 12.6872 46.9236 13.1085ZM46.074 12.6814C46.3042 12.7715 46.5173 12.8732 46.7076 12.9778C46.7701 12.8587 46.9548 12.5304 47.1622 12.3212C47.452 12.0336 47.6254 11.8157 47.1707 11.4322C46.9548 11.2491 46.8241 11.1387 46.6394 11.0196C46.6451 11.2288 46.6394 11.5309 46.5741 11.7692C46.5031 12.0248 46.2502 12.4229 46.074 12.6785V12.6814ZM45.0796 11.5687C45.1108 11.8331 45.0853 12.1963 45.0682 12.3793C45.2671 12.4171 45.4802 12.4752 45.699 12.5449C45.7132 12.2747 45.7558 11.8738 45.878 11.5164C45.9575 11.284 46.1422 11.0458 46.2786 10.8889C46.0655 10.8627 45.895 10.8656 45.6194 10.8686C45.0284 10.8773 45.0341 11.1562 45.0796 11.5658V11.5687ZM44.1164 11.8796C44.2045 12.051 44.2755 12.2282 44.3835 12.3125C44.463 12.3067 44.5824 12.3183 44.6875 12.327C44.7301 12.3299 44.7727 12.3357 44.8182 12.3415C44.7784 11.8273 44.2925 11.316 44.6761 10.7698C44.7131 10.7175 44.7557 10.6739 44.8068 10.639C44.5539 10.6332 44.1761 10.6971 44.0255 11.101C43.909 11.4118 44.0255 11.6268 44.1192 11.8825L44.1164 11.8796ZM43.2157 13.4804C43.2668 13.4658 43.4828 13.2828 43.7271 13.245C43.4771 13.1027 43.2583 12.9255 43.1447 12.7076C43.085 13.0155 42.8094 13.3671 43.2129 13.4804H43.2157ZM42.7611 18.6169C42.7611 18.6169 42.9316 18.367 42.8208 18.0561C42.7071 17.754 42.5196 17.6116 42.5281 17.4373C42.5395 17.2659 42.7327 17.1526 42.9316 16.9434C43.1333 16.7372 43.318 16.3043 43.2185 16.1009C43.1248 15.8917 42.9856 15.7319 42.7469 15.6506C42.5111 15.5693 42.4457 15.4443 42.5508 15.2671C42.6531 15.0841 42.9259 15.1044 43.1106 15.2816C43.2896 15.4618 43.5737 15.8598 43.4771 16.3333C43.3777 16.8098 43.0878 17.1497 42.9231 17.356C42.7526 17.5594 42.9742 17.8324 43.3521 17.9196C43.73 18.0126 43.9658 17.9806 44.0084 17.9283C44.051 17.876 44.0454 17.5448 44.105 17.1671C44.1675 16.7924 44.7301 16.4031 45.1847 16.4147C45.6421 16.4205 45.9177 16.528 45.8183 16.8621C45.5597 17.2921 45.0398 16.7836 45.0398 16.7836C45.0398 16.7836 44.5966 17.0161 44.4403 17.3821C44.2897 17.754 44.3408 18.1288 44.1192 18.1927C43.9033 18.2537 43.4004 18.0881 43.2697 18.2624C43.1305 18.4367 43.0878 18.6953 43.0878 18.6953C43.0878 18.6953 43.7925 19.7615 44.5056 19.349C44.7983 19.1805 45.1989 18.5181 45.6734 18.2828C46.1962 18.0242 46.8042 17.6756 46.8042 16.9057C46.8042 16.8708 46.7929 16.5919 46.7929 16.4931C46.7588 15.9324 46.915 15.8104 46.9832 15.7174C47.1878 15.4414 47.2844 15.3746 47.2759 14.9185C47.6538 14.7442 48.2163 14.5553 48.526 15.0812C48.7334 14.2561 47.364 14.1457 47.094 14.1718C46.9463 14.1951 47.023 14.3723 46.9577 14.3694C46.8951 14.3665 46.79 14.2561 46.6678 14.1486C46.6053 14.0934 46.0058 13.7099 45.52 13.5733C44.8494 13.3874 44.0738 13.3729 43.8891 13.3903C43.7044 13.4077 43.4231 13.4862 43.2526 13.6402C43.1077 13.7709 42.9458 13.9104 42.7725 14.0498C42.5991 14.1893 42.3946 14.4072 42.2667 14.6628C42.2184 14.7558 42.1758 14.8546 42.1417 14.9475C42.4457 14.6715 42.6702 14.5727 42.8122 14.5611C42.8605 14.5611 42.9543 14.6192 42.9543 14.6192C42.9543 14.6192 42.2781 14.9504 42.0621 15.3746C41.8405 15.7959 41.9627 16.4002 42.0337 16.772C42.1076 17.1468 42.0167 17.4664 41.903 17.7075C41.7865 17.9487 41.6672 18.2479 41.9116 18.5152C42.1531 18.7825 42.7639 18.6169 42.7639 18.6169H42.7611ZM39.9681 24.3518L41.2211 24.7789C41.2211 24.7789 41.2382 23.1258 41.7951 21.7574C40.9285 21.8591 39.971 21.6877 39.971 21.6877V24.3489L39.9681 24.3518ZM41.2098 25.206C40.8773 25.0927 39.9852 24.8021 39.9653 24.7934V27.4953C40.2125 27.2135 40.8546 26.5395 41.3234 25.9875C41.2325 25.5459 41.2069 25.206 41.2069 25.206H41.2098ZM36.4165 17.9545C36.4165 18.4367 36.6154 18.5094 36.6325 18.4338C36.6808 18.2421 36.7717 18.0939 36.8825 18.0387C36.8825 18.0387 36.8513 18.3031 36.9052 18.4629C36.945 18.582 36.9848 18.6663 37.2547 18.6663C37.4621 18.6663 37.5303 18.3089 37.5786 18.0649C37.5843 18.03 37.607 18.0329 37.6127 18.0678C37.661 18.3089 37.7661 18.6488 37.965 18.6663C38.1639 18.6837 38.2435 18.5849 38.2833 18.4629C38.3372 18.3031 38.306 18.0387 38.306 18.0387C38.4083 18.091 38.4935 18.2217 38.5447 18.3932C38.5901 18.5413 38.8032 18.4367 38.8032 17.9574C38.8032 17.478 38.4282 17.0974 37.965 17.0974H37.2519C36.7916 17.0974 36.4137 17.478 36.4137 17.9574L36.4165 17.9545ZM23.5967 17.9545C23.5967 18.4367 23.7956 18.5094 23.8127 18.4338C23.861 18.2421 23.9519 18.0939 24.0627 18.0387C24.0627 18.0387 24.0315 18.3031 24.0854 18.4629C24.1252 18.582 24.165 18.6663 24.4349 18.6663C24.6423 18.6663 24.7105 18.3089 24.7588 18.0649C24.7645 18.03 24.7872 18.0329 24.7929 18.0678C24.8412 18.3089 24.9463 18.6488 25.1452 18.6663C25.3441 18.6837 25.4237 18.5849 25.4635 18.4629C25.5174 18.3031 25.4862 18.0387 25.4862 18.0387C25.5885 18.091 25.6737 18.2217 25.7248 18.3932C25.7703 18.5413 25.9834 18.4367 25.9834 17.9574C25.9834 17.478 25.6084 17.0974 25.1452 17.0974H24.4321C23.9718 17.0974 23.5939 17.478 23.5939 17.9574L23.5967 17.9545ZM19.7525 13.1869C19.9912 13.3264 20.1474 13.6024 20.1957 13.6373C20.6589 13.6808 20.5083 13.2073 20.5623 12.8616C20.3634 13.0417 20.065 13.1376 19.7525 13.1869ZM17.5846 12.356C17.6301 12.3502 17.6727 12.3473 17.7153 12.3415C17.8204 12.3328 17.9398 12.3212 18.0193 12.327C18.1273 12.2427 18.1983 12.0655 18.2864 11.8941C18.383 11.6413 18.4938 11.4264 18.3802 11.1126C18.2296 10.7059 17.8517 10.6419 17.5988 10.6507C17.65 10.6855 17.6926 10.7291 17.7295 10.7814C18.1131 11.3276 17.6272 11.8389 17.5875 12.3531L17.5846 12.356ZM16.1242 10.9092C16.2606 11.0661 16.4453 11.3043 16.5248 11.5368C16.647 11.8912 16.6896 12.295 16.7038 12.5652C16.9226 12.4955 17.1357 12.4374 17.3346 12.3996C17.3175 12.2166 17.292 11.8534 17.3232 11.5891C17.3715 11.1794 17.3744 10.9005 16.7834 10.8918C16.5078 10.8889 16.3401 10.886 16.1242 10.9121V10.9092ZM15.2377 12.3415C15.4451 12.5507 15.6298 12.879 15.6923 12.9981C15.8799 12.8935 16.0958 12.7918 16.3259 12.7018C16.1498 12.4432 15.8969 12.0481 15.8259 11.7924C15.7605 11.5542 15.7548 11.252 15.7605 11.0429C15.5758 11.162 15.4451 11.2724 15.2292 11.4554C14.7746 11.8418 14.9479 12.0568 15.2377 12.3444V12.3415ZM15.394 13.184C15.4196 13.1666 15.448 13.1463 15.4764 13.1288C15.1525 12.7105 14.4649 12.6814 14.428 11.9784C14.4251 11.9144 14.4336 11.8534 14.4507 11.7924C14.249 11.9493 13.9933 12.2427 14.1268 12.6553C14.2291 12.972 14.4479 13.0678 14.678 13.2044C14.8513 13.2799 15.0161 13.3729 15.1496 13.37C15.2065 13.3148 15.3059 13.248 15.394 13.184ZM15.0246 14.84C15.2349 14.8052 15.6042 14.9243 15.0815 15.6245C14.6098 16.2549 14.2177 16.9405 14.3172 17.9777C14.4138 19.0178 14.8087 19.5233 14.4507 20.5372C14.0927 21.5512 14.6354 22.7888 14.6354 22.7888C14.6354 22.7888 14.874 22.1845 15.0388 21.5977C15.4253 23.1868 16.2663 23.9858 16.2663 23.9858C16.2663 23.9858 16.0503 23.2304 16.4708 21.6761C16.7635 24.0032 19.3149 23.7998 20.7839 25.0317C21.4374 25.5779 22.0284 26.3332 22.4176 26.8765V18.8493H22.6534C22.6165 18.5646 22.5398 18.0561 22.392 17.5187C22.1733 16.7255 21.8238 15.9237 21.0907 15.148C20.3605 14.3665 20.3208 14.2328 20.0935 13.797C19.8662 13.3584 19.4797 13.1434 18.9825 13.1085C18.4853 13.0736 16.8715 13.3235 15.0218 14.8429L15.0246 14.84ZM14.7064 15.8249C14.8002 15.7058 15.1496 15.2933 15.1269 15.0725C14.965 15.0202 13.2716 15.055 13.4761 16.0167C13.8739 15.3949 14.5814 15.8162 14.7064 15.8249ZM13.7432 32.1118C16.1185 33.1112 15.5929 35.8595 15.5702 36.2488C15.5219 37.1291 16.2805 37.2483 16.9141 37.9106C17.7579 38.7968 18.5336 39.7148 18.6245 39.7468C18.8746 39.7903 20.8464 40.0257 20.9686 39.9414C20.4032 38.7009 17.7409 37.6811 17.1783 36.551C16.7749 35.7433 16.7663 34.924 16.8573 34.2965C16.9539 33.6719 17.559 30.2495 13.7404 32.1118H13.7432ZM19.6389 29.2762C19.3746 29.1397 19.1786 29.0816 19.1786 29.0816C16.0162 30.6911 14.6723 29.6917 13.2034 31.9491C13.2517 31.9578 13.3085 31.9694 13.3682 31.9839C13.533 31.8183 13.8796 31.522 14.4507 31.2431C15.3059 30.8218 16.1583 30.6766 17.2493 30.3483C18.2608 30.049 19.1928 29.5755 19.636 29.2762H19.6389ZM39.505 33.9305C39.4254 33.9421 39.3431 33.9508 39.2635 33.9537V37.0071H36.4791L36.4677 36.9693L36.4506 36.9054L36.4308 36.8299L36.4137 36.7631L36.3938 36.6933L36.3739 36.6207L36.354 36.5539L36.3341 36.4842L36.3143 36.4144L36.2944 36.3447L36.2745 36.2721L36.2546 36.2024L36.2489 36.1791H33.3167L33.3082 36.2024L33.2883 36.2721L33.2656 36.3447L33.2428 36.4144L33.223 36.4842L33.2002 36.5539L33.1803 36.6236L33.1576 36.6963L33.1349 36.766L33.115 36.8328L33.0923 36.9083L33.0724 36.9723L33.061 37.01H29.5776V36.9723L29.5662 36.9083L29.5577 36.8328L29.5492 36.766L29.5407 36.6963L29.5322 36.6236L29.5236 36.5568L29.5151 36.4871L29.5066 36.4173L29.4981 36.3476L29.4895 36.275L29.481 36.2053L29.4725 36.1326L29.464 36.0629L29.4554 35.9932L29.4469 35.9235L29.4384 35.8508L29.4299 35.784L29.427 35.7491H26.5034V35.784H26.5005L26.492 35.8508L26.4835 35.9235L26.4749 35.9932L26.4664 36.0629L26.4579 36.1326L26.4494 36.2053L26.4408 36.275L26.4323 36.3476L26.4238 36.4173L26.4153 36.4871L26.4068 36.5568L26.3982 36.6265L26.3897 36.6992L26.3812 36.7689L26.3727 36.8357L26.3641 36.9112L26.3556 36.9752C26.3442 36.9519 26.3329 36.9316 26.3187 36.9112C26.3045 36.8851 26.2874 36.8589 26.2704 36.8357C26.2533 36.8125 26.2391 36.7892 26.2221 36.7689C26.2022 36.7427 26.1766 36.7195 26.1539 36.6992C26.1283 36.673 26.0971 36.6498 26.0686 36.6265C26.0345 36.6004 26.0005 36.58 25.9635 36.5597C25.9124 36.5307 25.8584 36.5074 25.8044 36.49C25.7248 36.4638 25.6368 36.4522 25.5487 36.4522C25.4606 36.4522 25.3754 36.4667 25.293 36.49C25.2362 36.5074 25.1822 36.5307 25.1282 36.5597C25.0912 36.58 25.0572 36.6033 25.0231 36.6265C24.9918 36.6498 24.9634 36.673 24.9378 36.6992C24.9151 36.7224 24.8924 36.7456 24.8725 36.7689C24.8554 36.7892 24.8384 36.8125 24.8242 36.8357C24.8071 36.8589 24.7901 36.8851 24.7759 36.9112C24.7645 36.9316 24.7531 36.9548 24.7446 36.9752C24.7389 36.9868 24.7304 37.0013 24.7247 37.0129H23.1166V36.7689V36.5568V36.4173V35.7869V35.5748V35.508V35.1594V35.0896V35.0199V34.2529V34.1832V34.1135V33.9798C23.0342 33.9769 22.9546 33.9682 22.8751 33.9566V36.2198V38.974C22.8751 40.2813 23.6791 40.9205 24.8441 40.9205H37.5218C38.6867 40.9205 39.4908 40.2813 39.4908 38.974V35.5719V33.9421L39.505 33.9305ZM27.2137 34.1019L27.2108 34.1716L27.208 34.2413L27.2052 34.311V34.3808L27.1995 34.4505V34.5202L27.1909 34.5928V34.6626L27.1853 34.7294L28.7877 34.7323L28.7849 34.6626V34.5928L28.7792 34.5202V34.4505L28.7735 34.3808V34.311L28.7678 34.2413L28.765 34.1716L28.7622 34.1019L28.7593 34.0292V33.9595L28.7536 33.8927V33.8201L28.748 33.7532V33.6835L28.7423 33.6109L28.7394 33.5411V33.4743L28.7338 33.4017V33.332L28.7281 33.2593V33.1925L28.7224 33.1228V33.0531L28.7167 32.9862L28.7139 32.9165V32.8439H28.711V32.7771L28.7053 32.7073V32.6376H28.7025L27.3018 32.6347V32.6405V32.7102L27.2932 32.78V32.8468H27.2904V32.9194H27.2875V32.9892H27.2847V33.056L27.279 33.1257V33.1954L27.2733 33.2622V33.3349L27.2648 33.4046V33.4772L27.2591 33.5441V33.6138H27.2563V33.6864L27.2478 33.7561V33.823L27.2392 33.8956V33.9624L27.2336 34.0321V34.1048L27.2137 34.1019ZM28.7394 32.5127V32.4924V32.074V31.9868H27.2137V32.074V32.4924V32.5127H28.7394ZM26.9921 34.9095L26.9864 34.9444L26.9778 35.0112L26.9665 35.0809L26.9551 35.1507L26.9466 35.2204L26.9352 35.2901L26.9239 35.3598L26.9125 35.4325L26.904 35.5022L26.8955 35.569L26.8898 35.6097H29.0605V35.569H29.0548L29.0463 35.5022L29.0378 35.4325L29.0292 35.3598L29.0207 35.2901L29.0122 35.2204L29.0037 35.1536L28.9952 35.0838L28.9866 35.0141L28.9809 34.9473V34.9124H26.9807L26.9921 34.9095ZM33.2144 35.7056V35.7782V36.0397H36.3796V35.7782V35.7027H33.2144V35.7056ZM36.1551 35.5516V35.5022V35.1536V35.0838V35.0141V34.9124H33.4616V35.0141V35.0838V35.1536V35.5051V35.5545H36.1551V35.5516ZM48.6511 32.0943C44.8324 30.2321 45.4376 33.6574 45.5342 34.2791C45.6251 34.9066 45.6166 35.7259 45.2131 36.5336C44.6505 37.6608 41.9854 38.6834 41.4229 39.924C41.5479 40.0082 43.5169 39.7729 43.7669 39.7293C43.8578 39.6974 44.6363 38.7793 45.4774 37.8932C46.1081 37.2308 46.8696 37.1117 46.8213 36.2314C46.7985 35.8421 46.2729 33.0937 48.6482 32.0943H48.6511ZM49.1909 31.9345C47.6026 29.9822 46.6593 30.0229 43.5396 28.0241C43.5396 28.0241 43.3237 28.1432 42.9998 28.3669C43.7726 29.0932 46.9832 29.898 49.0261 31.9694C49.0886 31.9549 49.1426 31.9433 49.1909 31.9345ZM53.6687 32.8613C53.5522 32.4517 53.6091 31.9839 53.6744 31.4407C53.7398 30.8945 53.8136 30.2756 53.7312 29.5697C53.5892 28.3378 52.6175 27.7306 51.2764 26.891C51.1485 26.8097 51.0178 26.7283 50.8843 26.6441C50.3331 26.2954 49.2676 25.267 49.1483 25.1508C48.4465 24.4593 48.2163 23.0968 47.3554 22.2078C47.0202 21.862 46.7957 21.6238 46.4661 21.1938C45.4944 20.0753 45.7814 19.1892 46.0428 18.7796C46.2019 18.5326 46.5286 18.2159 46.4888 18.1753C46.469 18.1549 46.2928 18.3292 46.1195 18.4338C45.9348 18.5442 45.7899 18.6052 45.52 18.8667C45.412 18.9742 45.3012 19.0788 45.1904 19.1834C44.7642 19.5843 43.9033 20.4239 42.8378 18.9277C42.8378 18.9277 42.4287 19.0643 42.0451 18.89C42.1531 19.84 42.852 19.7383 43.6192 19.808C43.4345 19.8806 43.2697 19.9649 43.0083 19.9998C42.8151 20.6767 41.3405 22.2775 41.653 25.5749L41.94 25.1798C41.9087 22.9137 42.5679 21.7022 43.2924 20.6418C43.3095 20.6157 43.3492 20.6418 43.3379 20.6709C42.6759 22.0915 42.3775 23.0619 42.5452 24.2618C43.2811 22.8556 43.6305 22.5738 44.088 22.4344C42.8236 23.5471 43.2867 24.3547 41.4001 26.6266C41.2268 26.8358 40.454 27.7626 40.1784 28.0938C40.1045 28.181 40.0335 28.2681 39.9624 28.3495C39.7749 28.5674 39.6073 28.7591 39.4993 28.8724V28.794V28.0066V19.2909H22.8836V27.138V27.3181V27.9543C22.8836 27.9543 22.8807 27.9543 22.8779 27.9543V29.2239C22.8779 29.2239 22.7046 28.9015 22.4148 28.4337C22.3182 28.2768 22.2102 28.1054 22.088 27.9224C21.3976 26.8707 20.3577 25.4849 19.3746 24.9736C18.5847 24.5639 17.6699 24.5232 16.6214 23.3582C16.5333 23.8608 16.7834 24.7208 16.7834 24.7208C16.7834 24.7208 15.5247 24.4245 15.0076 22.8091C14.8769 23.303 14.7774 23.9073 13.8313 24.4274C13.3454 25.1798 12.7545 25.6621 12.2885 26.002C12.0612 26.2315 11.8026 26.4581 11.5043 26.6644C11.2514 26.8387 11.0099 26.9985 10.7769 27.1554C9.62054 27.9195 8.78236 28.4744 8.65166 29.5958C8.56927 30.3047 8.64314 30.9235 8.70849 31.4668C8.77384 32.0072 8.83066 32.4778 8.71417 32.8875C8.58347 33.3523 8.02659 33.8694 7.58051 34.2878C7.35889 34.4941 7.15147 34.6887 7.06624 34.8136C6.94974 34.9822 6.98952 35.4383 7.05487 35.906C7.18273 35.6504 7.40151 35.4819 7.58051 35.3802C7.67711 35.325 7.78792 35.4296 7.74246 35.5341C7.58335 35.8973 7.33047 36.5713 7.23955 37.3499C7.24524 37.5359 7.24524 37.7363 7.24524 37.9484C7.24524 38.5353 7.24524 39.1977 7.40151 39.5173C7.45265 39.6247 7.53789 39.7381 7.64017 39.8572C7.68279 39.9037 7.73109 39.9472 7.78508 39.9879C7.94703 40.1157 8.16865 40.1855 8.40163 40.2755C8.48687 40.3017 8.58347 40.3423 8.68576 40.3975C8.71133 40.4092 8.7369 40.4208 8.76247 40.4353C9.07217 40.6009 9.29663 40.7287 9.52677 40.781C9.69441 40.8101 9.85636 40.8014 10.0041 40.7462C10.0212 40.7404 10.0354 40.7346 10.0496 40.7287C10.2683 40.6038 10.3564 40.3685 10.5553 40.3685C10.5809 40.3656 10.6065 40.3656 10.6349 40.3685H10.6406C10.8707 40.3801 11.0667 40.4266 11.1662 40.2988C11.2003 40.2552 11.2259 40.2087 11.2429 40.1593C11.2429 40.1477 11.2486 40.1303 11.2514 40.1186C11.2855 39.7584 11.0639 39.7206 10.453 39.5114C9.84216 39.3052 8.65735 39.2064 8.52381 38.146C8.39595 37.0827 8.24536 36.092 9.23128 35.1652C10.2144 34.2355 11.7117 34.3895 12.3453 31.8852C12.9931 28.9392 14.4365 28.4831 14.4365 28.4831C14.4365 28.4831 13.55 29.4244 13.3369 30.9961C14.7121 29.5464 16.4737 29.7992 18.1671 28.6284C16.3345 27.4198 17.7352 24.9329 17.7352 24.9329C17.7352 24.9329 18.1841 26.8126 19.4229 27.5534C20.065 27.9369 20.6617 28.4628 21.1049 29.1281C21.3521 29.497 21.551 29.9067 21.6846 30.3599C21.9516 31.2751 21.9801 32.3878 22.4062 32.9543C22.5256 33.1141 22.679 33.2274 22.8751 33.2855C22.9489 33.3058 23.0285 33.3203 23.1166 33.3233C23.1222 33.3233 23.1251 33.3233 23.1279 33.3233C23.1791 33.3233 23.2331 33.3233 23.287 33.3233C23.4859 33.3174 23.7985 33.3029 23.9036 33.0879C23.9718 32.9456 23.9121 32.7771 23.8667 32.6376C23.8127 32.472 23.7644 32.3035 23.7104 32.1379C23.557 31.6673 23.3922 30.6504 23.3808 30.633H23.4604H23.5058H23.8269H26.4636H27.8615V30.6388V30.6853V31.0078L27.8217 31.0339L27.7137 31.1036L27.6086 31.1705L27.4978 31.2431L27.3898 31.3128L27.2819 31.3825L27.2052 31.4319H27.4467V31.8474H28.5093V31.4319H28.7309L28.657 31.3825L28.5519 31.3128L28.4468 31.2431L28.3388 31.1705L28.2365 31.1036L28.1314 31.0339L28.0831 31.002V30.6301H31.933H38.664H38.7492H38.9623C38.9453 30.6766 38.6924 32.0014 38.6612 32.1205C38.6157 32.289 38.5589 32.4546 38.5049 32.6202C38.4594 32.7596 38.3969 32.9281 38.4679 33.0705C38.5731 33.2855 38.8856 33.3 39.0845 33.3058C39.1385 33.3058 39.1896 33.3058 39.2436 33.3058C39.2464 33.3058 39.2493 33.3058 39.255 33.3058C39.3431 33.3029 39.4226 33.2884 39.4965 33.2681C39.6925 33.2129 39.8431 33.0995 39.9624 32.9456C40.3943 32.382 40.4199 31.2634 40.6898 30.3454C40.8347 29.8457 41.062 29.3983 41.3433 29.0031C41.778 28.3901 42.3434 27.9021 42.9486 27.5389C44.1874 26.7981 46.2985 25.9672 46.6593 23.457C46.8383 25.1682 45.9263 26.5221 44.3181 27.6406C45.5285 28.7911 47.4009 29.1629 49.0744 31.1937C48.884 29.5406 47.9351 28.4686 47.9351 28.4686C47.9351 28.4686 49.3813 28.9247 50.0262 31.8706C50.6598 34.372 52.1572 34.221 53.1403 35.1507C54.1262 36.0803 53.9756 37.0681 53.8477 38.1314C53.7142 39.1919 52.5294 39.2906 51.9185 39.4969C51.3076 39.7061 51.086 39.7439 51.1201 40.1041C51.1201 40.1157 51.1258 40.1332 51.1286 40.1448C51.1457 40.1942 51.1713 40.2407 51.2054 40.2842C51.3048 40.4121 51.5008 40.3656 51.731 40.354H51.7367C51.7651 40.3482 51.7907 40.3482 51.8134 40.354C52.0151 40.354 52.1003 40.5893 52.322 40.7142C52.3362 40.72 52.3504 40.7258 52.3674 40.7316C52.5152 40.7898 52.6771 40.7985 52.8448 40.7665C53.0749 40.7171 53.2994 40.5893 53.6091 40.4208C53.6346 40.4063 53.6602 40.3946 53.6858 40.383C53.7881 40.3278 53.8847 40.2901 53.9699 40.261C54.2029 40.1709 54.4245 40.1012 54.5865 39.9734C54.6404 39.9327 54.6887 39.8891 54.7314 39.8426C54.8365 39.7235 54.9189 39.6073 54.9729 39.5027C55.1291 39.1832 55.1291 38.5208 55.1291 37.9339C55.1291 37.7218 55.1291 37.5213 55.1377 37.3354C55.0496 36.5568 54.7939 35.8799 54.6348 35.5196C54.5893 35.415 54.7001 35.3104 54.7967 35.3656C54.9786 35.4673 55.1945 35.6358 55.3224 35.8915C55.3877 35.4267 55.4275 34.9676 55.311 34.7991C55.2257 34.6742 55.0155 34.4795 54.7967 34.2733C54.3506 33.8549 53.7937 33.3378 53.663 32.8729L53.6687 32.8613Z" fill="white"/>
</g>
<defs>
<clipPath id="clip0_31_1982">
<rect width="157" height="49" fill="white"/>
</clipPath>
</defs>
</svg>
